<?xml version="1.0" encoding="UTF-8" standalone="no"?>
<svg
   width="511.65393"
   height="593.61157"
   viewBox="0 0 511.65393 593.61157"
   version="1.1"
   xml:space="preserve"
   style="clip-rule:evenodd;fill-rule:evenodd;stroke-linejoin:round;stroke-miterlimit:1.41421"
   id="svg13642"
   sodipodi:docname="dragnsob_plont.svg"
   inkscape:version="1.2.2 (b0a8486541, 2022-12-01)"
   xmlns:inkscape="http://www.inkscape.org/namespaces/inkscape"
   xmlns:sodipodi="http://sodipodi.sourceforge.net/DTD/sodipodi-0.dtd"
   xmlns="http://www.w3.org/2000/svg"
   xmlns:svg="http://www.w3.org/2000/svg"><defs
   id="defs13646" /><sodipodi:namedview
   id="namedview13644"
   pagecolor="#ffffff"
   bordercolor="#000000"
   borderopacity="0.25"
   inkscape:showpageshadow="2"
   inkscape:pageopacity="0.0"
   inkscape:pagecheckerboard="0"
   inkscape:deskcolor="#d1d1d1"
   showgrid="false"
   inkscape:zoom="1.4960938"
   inkscape:cx="256"
   inkscape:cy="131.34204"
   inkscape:window-width="1906"
   inkscape:window-height="920"
   inkscape:window-x="5"
   inkscape:window-y="42"
   inkscape:window-maximized="1"
   inkscape:current-layer="svg13642" />
    <g
   transform="matrix(-1,0,0,1,23.230938,596.80707)"
   id="g13620">
        <path
   d="m -33.041,-481.413 c -26.867,7.704 -26.698,28.924 -26.698,28.924 l -44.118,13.793 c 0,0 -48.501,-41.267 -110.795,-20.22 -7.149,2.415 -40.572,12.275 -81.424,14.525 -9.345,0.514 -159.372,-16.178 -159.372,-16.178 0,0 1.025,34.8 42.591,55.416 21.624,10.725 53.385,3.695 63.07,2.55 -4.187,0.429 -138.636,0.869 -138.636,0.869 0,0 9.151,46.485 57.271,55.866 28.096,5.478 25.342,-0.626 23.192,3.772 -36.468,74.577 -30.372,71.241 -37.006,112.455 -9.535,59.225 16.653,167.876 31.653,191.209 111.391,74.655 227.667,12.667 246.667,-21.333 -56.001,-49 -122.116,-178.405 -38.451,-198.018 48.125,-11.282 168.978,-8.544 192.852,-31.976 19.94,-19.57 19.562,-95.099 19.562,-95.099 L -2.335,-477.2 c 0,0 -3.84,-11.917 -30.706,-4.213"
   style="fill:#ffba00;fill-rule:nonzero"
   id="path13618" />
    </g>
    <g
   transform="matrix(0.594912,0,0,0.594912,-36.653762,97.153833)"
   id="g13624">
        <path
   d="m 160.96,311.951 c -35.132,-15.32 -36.458,28.64 -81.814,-2.069 -27.555,-18.656 -20.745,-57.861 7.282,-115.022 11.542,-23.538 46.843,15.413 74.265,14.454 27.422,-0.959 37.936,-21.304 81.351,-18.705 29.037,1.737 146.791,70.903 142.841,129.444 -3.133,46.424 -33.24,52.289 -82.084,44.388 -48.844,-7.902 -105.328,-36.568 -141.841,-52.49 z"
   style="fill:#ed6c30"
   id="path13622" />
    </g>
    <g
   transform="matrix(-0.422179,-0.906513,-0.906513,0.422179,236.83464,185.53157)"
   id="g13628">
        <path
   d="M -5.491,31.941 C -4.116,27.686 -11.301,24.204 -22.31,13.086 -30.691,4.621 -37.887,1.645 -31.158,-8.027 -21.861,-21.391 0.276,6.736 10.855,19.534 26.982,39.043 32.121,57.123 23.867,60.89 16.935,64.055 6.604,56.602 -9.012,51.527 c -16.691,-5.424 -21.809,-5.18 -33.202,-8.365 -11.904,-3.327 -0.312,-18.327 5.521,-17.83 13.87,1.18 29.827,10.865 31.202,6.609 z"
   style="fill:#231f20;fill-rule:nonzero"
   id="path13626" />
    </g>
    <g
   transform="rotate(-8.3609611,598.11853,984.14393)"
   id="g13632">
        <path
   d="m 386.352,196.191 c 0,0 55.196,16.825 53.729,55.452 -0.862,22.698 -23.976,26.901 -35.053,12.929 -18.221,-22.982 -18.676,-68.381 -18.676,-68.381 z"
   style="fill:#fffefc"
   id="path13630" />
    </g>
    <g
   transform="rotate(17.790296,-60.33148,94.488614)"
   id="g13636">
        <path
   d="m 386.352,196.191 c 0,0 55.196,16.825 53.729,55.452 -0.862,22.698 -23.976,26.901 -35.053,12.929 -18.221,-22.982 -18.676,-68.381 -18.676,-68.381 z"
   style="fill:#fffefc"
   id="path13634" />
    </g>
    <g
   transform="matrix(-0.530963,-0.847395,-0.847395,0.530963,39.442938,142.28297)"
   id="g13640">
        <path
   d="m -10.739,-19.403 c -7.001,0 -12.674,5.674 -12.675,12.675 0,6.999 5.675,12.674 12.675,12.673 7,-0.001 12.674,-5.674 12.675,-12.674 0,-7 -5.675,-12.674 -12.675,-12.674"
   style="fill:#231f20;fill-rule:nonzero"
   id="path13638" />
    </g>
<path
   style="clip-rule:evenodd;fill:#076d14;fill-opacity:0.99689;fill-rule:evenodd;stroke-width:0.219135;stroke-miterlimit:10"
   d="m 228.31349,139.66153 c 0.01,-0.0529 0.47585,-0.63607 1.03676,-1.29567 2.42209,-2.84854 4.70673,-6.59927 6.23095,-10.22936 1.76,-4.19161 2.4619,-6.79034 4.06454,-15.04395 l 1.51753,-7.8163 0.85932,1.98572 c 2.93488,6.78219 4.55472,15.58747 3.96554,21.55646 l -0.18713,1.89562 1.85982,-1.56182 c 2.6132,-2.19442 4.16308,-3.85848 6.14009,-6.59245 4.11689,-5.6931 6.26299,-10.93581 9.97539,-24.368711 0.85209,-3.083066 1.67742,-5.976275 1.8342,-6.429299 l 0.285,-0.823715 0.35913,1.542859 c 1.99355,8.564736 2.72101,21.828426 1.72962,31.535816 -0.15113,1.47968 -0.23888,2.74205 -0.19423,2.80532 0.22334,0.31896 5.05464,-7.68961 7.13156,-11.8216 7.96531,-15.846753 11.40264,-31.902578 10.66321,-49.808066 -0.15078,-3.650731 -0.52608,-7.769528 -0.71091,-7.802127 -0.0891,-0.01572 -0.78685,0.212008 -1.5506,0.506026 -4.49479,1.730342 -11.84043,2.02811 -18.97928,0.769328 -5.74554,-1.01309 -10.33389,-2.582654 -15.32608,-5.242677 C 242.1356,49.755779 238.38738,45.63873 235.11769,38.154861 233.59418,34.667728 232.363,30.67546 230.07558,21.804821 227.45734,11.651357 225.66455,6.220002 223.37408,1.502282 222.98868,0.708504 222.71072,0.032918 222.75632,9.7099567e-4 222.80212,-0.030939 223.94346,0.727643 225.29302,1.686807 c 7.96927,5.66392 14.00777,8.245955 27.60428,11.803492 11.29694,2.955869 14.50766,4.324432 20.27979,8.644232 7.47772,5.596234 11.4472,11.444075 13.19394,19.437347 0.28584,1.307934 0.59707,2.391697 0.69164,2.408372 0.0946,0.01661 0.29248,-0.653306 0.43984,-1.488824 0.9177,-5.204514 3.28885,-10.537627 6.74495,-15.17051 8.52969,-11.434054 25.57784,-20.698568 43.97969,-23.900065 2.06397,-0.359085 7.18114,-0.99871 7.5166,-0.939543 0.10921,0.01909 -0.48334,0.763615 -1.31664,1.654164 -3.1788,3.397254 -6.20846,8.259693 -8.30998,13.337037 -1.30535,3.153688 -2.11007,5.620761 -4.43411,13.593223 -3.14022,10.772386 -4.64318,14.418558 -7.54064,18.293901 -3.33127,4.455481 -11.34454,9.241868 -17.74119,10.596966 -2.9816,0.631628 -5.18787,0.612478 -8.3757,-0.07269 -2.38741,-0.513138 -2.93834,-0.713791 -4.8189,-1.755108 -1.16781,-0.646667 -2.15699,-1.152156 -2.19818,-1.123326 -0.0413,0.02883 0.0444,1.663294 0.19008,3.632132 0.50857,6.872012 0.44415,13.382414 -0.19936,20.153241 -0.40621,4.273357 -2.49432,15.036244 -3.66045,18.866861 -3.30644,10.861611 -7.98473,20.661151 -14.38703,30.136281 -0.98538,1.45831 -1.76015,2.69637 -1.72171,2.75125 0.0384,0.0549 1.08132,-0.32727 2.31754,-0.84924 7.32011,-3.0907 11.80246,-7.09292 17.30492,-15.45132 l 1.27854,-1.94212 -0.16075,2.47299 c -0.28291,4.35356 -1.2445,10.23409 -2.06053,12.60188 -1.32543,3.84567 -3.81103,7.76339 -7.27323,11.4635 -0.91477,0.97771 -1.6808,1.87696 -1.70222,1.99835 -0.0252,0.14372 0.47885,0.25717 1.44465,0.32508 7.13379,0.50165 14.38165,-3.98906 20.19506,-12.51265 l 1.25764,-1.84393 -0.0391,0.94622 c -0.0863,2.08876 -1.92134,13.29665 -2.30972,14.10677 -0.21307,0.44514 -0.35016,0.86295 -0.30411,0.92868 0.1641,0.2344 2.86317,-0.1557 4.52085,-0.6534 0.92728,-0.2784 2.31954,-0.79038 3.09392,-1.13773 0.77439,-0.34733 1.43605,-0.59142 1.47039,-0.54239 0.0344,0.049 -0.24958,0.83405 -0.63071,1.74455 -0.38138,0.91041 -1.17017,2.82287 -1.75281,4.24992 -0.58264,1.42706 -1.3115,3.12594 -1.6197,3.77529 l -0.56046,1.18061 -38.70166,-6.82414 c -21.28596,-3.75328 -38.69408,-6.86752 -38.68474,-6.9205 z"
   id="path2026"
   inkscape:label="plont" /></svg>
