<?xml version="1.0" encoding="UTF-8" standalone="no"?>
<svg
   width="512"
   height="619.92834"
   viewBox="0 0 512 619.92834"
   version="1.1"
   xml:space="preserve"
   style="clip-rule:evenodd;fill-rule:evenodd;stroke-linejoin:round;stroke-miterlimit:2"
   id="svg13748"
   sodipodi:docname="dragntea_plont.svg"
   inkscape:version="1.2.2 (b0a8486541, 2022-12-01)"
   xmlns:inkscape="http://www.inkscape.org/namespaces/inkscape"
   xmlns:sodipodi="http://sodipodi.sourceforge.net/DTD/sodipodi-0.dtd"
   xmlns="http://www.w3.org/2000/svg"
   xmlns:svg="http://www.w3.org/2000/svg"
   xmlns:serif="http://www.serif.com/"><sodipodi:namedview
   id="namedview13750"
   pagecolor="#ffffff"
   bordercolor="#000000"
   borderopacity="0.25"
   inkscape:showpageshadow="2"
   inkscape:pageopacity="0.0"
   inkscape:pagecheckerboard="0"
   inkscape:deskcolor="#d1d1d1"
   showgrid="false"
   inkscape:zoom="1.4960938"
   inkscape:cx="256"
   inkscape:cy="123.98956"
   inkscape:window-width="1906"
   inkscape:window-height="920"
   inkscape:window-x="5"
   inkscape:window-y="42"
   inkscape:window-maximized="1"
   inkscape:current-layer="svg13748" />
    <g
   transform="translate(0,107.92699)"
   id="g13733">
        <g
   id="Artboard1"
   transform="translate(0,0.00132501)">
            <rect
   x="0"
   y="0"
   width="512"
   height="512"
   style="fill:none"
   id="rect13648" />
            <clipPath
   id="_clip1">
                <rect
   x="0"
   y="0"
   width="512"
   height="512"
   id="rect13650" />
            </clipPath>
            <g
   clip-path="url(#_clip1)"
   id="g13730">
                <g
   id="Layer-2"
   serif:id="Layer 2">
                    <g
   transform="matrix(0.983463,-0.0448322,0.0448322,0.983463,54.4812,456.389)"
   id="g13664">
                        <path
   d="m 13.472,-423.365 c 25.136,10.396 22.642,30.982 22.642,30.982 l 63.404,-4.619 c 0,0 28.209,-36.443 58.948,-24.671 11.977,1.702 24.522,7.778 89.279,11.623 5.351,0.319 11.406,2.872 17.068,1.449 64.155,-16.115 133.749,-37.625 133.749,-37.625 0,0 29.502,56.773 -54.501,95.429 -0.184,1.53 -0.214,-0.318 0.546,1.743 1.893,0.018 11.419,-0.9 131.302,-25.499 0,0 20.649,76.985 -85.535,98.291 -11.253,2.845 -9.899,12.983 -4.188,21.338 24.187,35.386 47.273,85.744 35.79,175.188 -8.032,62.562 -50.743,124.477 -61.174,137.368 -118.941,46.46 -222.03,-57.446 -201.705,-80.235 27.335,-30.649 44.714,-49.498 53.798,-77.35 15.49,-47.492 -11.082,-116.747 -32.011,-122.786 -54.373,-15.688 -185.179,-8.714 -203.866,-31.799 -17.136,-21.166 -17.542,-64.049 -17.542,-64.049 l 23.837,-104.019 c 0,0 5.023,-11.155 30.159,-0.759"
   style="fill:#ffba00;fill-rule:nonzero"
   id="path13653" />
                        <clipPath
   id="_clip2">
                            <path
   d="m 13.472,-423.365 c 25.136,10.396 22.642,30.982 22.642,30.982 l 63.404,-4.619 c 0,0 28.209,-36.443 58.948,-24.671 11.977,1.702 24.522,7.778 89.279,11.623 5.351,0.319 11.406,2.872 17.068,1.449 64.155,-16.115 133.749,-37.625 133.749,-37.625 0,0 29.502,56.773 -54.501,95.429 -0.184,1.53 -0.214,-0.318 0.546,1.743 1.893,0.018 11.419,-0.9 131.302,-25.499 0,0 20.649,76.985 -85.535,98.291 -11.253,2.845 -9.899,12.983 -4.188,21.338 24.187,35.386 47.273,85.744 35.79,175.188 -8.032,62.562 -50.743,124.477 -61.174,137.368 -118.941,46.46 -222.03,-57.446 -201.705,-80.235 27.335,-30.649 44.714,-49.498 53.798,-77.35 15.49,-47.492 -11.082,-116.747 -32.011,-122.786 -54.373,-15.688 -185.179,-8.714 -203.866,-31.799 -17.136,-21.166 -17.542,-64.049 -17.542,-64.049 l 23.837,-104.019 c 0,0 5.023,-11.155 30.159,-0.759"
   clip-rule="nonzero"
   id="path13655" />
                        </clipPath>
                        <g
   clip-path="url(#_clip2)"
   id="g13662">
                            <g
   transform="matrix(-13.8914,38.5409,66.8346,24.0893,195.837,-263.982)"
   id="g13660">
                                <circle
   cx="0"
   cy="0"
   style="fill:url(#_Radial3)"
   id="ellipse13658"
   r="1" />
                            </g>
                        </g>
                    </g>
                    <g
   transform="matrix(-0.996451,0.0841806,0.0841806,0.996451,60.2203,80.8913)"
   id="g13668">
                        <path
   d="m 6.534,-21.372 c 6.448,0.027 11.676,5.28 11.676,11.733 0,6.454 -5.228,11.663 -11.676,11.637 -6.448,-0.027 -11.676,-5.28 -11.676,-11.733 0,-6.454 5.228,-11.663 11.676,-11.637"
   style="fill:#231f20;fill-rule:nonzero"
   id="path13666" />
                    </g>
                    <g
   transform="matrix(-0.135419,1.04228,1.23788,0.160832,272.196,106.544)"
   id="g13672">
                        <path
   d="m 13.585,-46.974 c 2.847,-7.265 29.351,8.066 28.987,21.192 C 41.962,-3.802 19.568,14.307 13.585,2.503 10.247,-4.082 36.309,-9.538 30.832,-25.447 26.543,-37.905 8.936,-35.112 13.585,-46.974"
   style="fill:#2f2f2f;fill-rule:nonzero;stroke:#1b2031;stroke-width:4.52px"
   id="path13670" />
                    </g>
                    <g
   transform="matrix(0.9692,0.0669875,-0.0582389,0.842622,7.968,192.21)"
   id="g13676">
                        <path
   d="m 0,-43.055 c 3.257,13.535 10.07,25.521 18.224,36.333 4.887,6.482 12.223,18.572 20.403,10.698 5.984,-5.76 10.513,-13.822 14.996,-20.938 3.848,-6.11 6.244,-12.932 7.57,-13.266 1.325,-0.333 13.351,16.672 23.356,28.689 0.75,0.9 7.14,9.249 12.213,8.418 6.506,-1.065 7.893,-5.106 10.344,-8.092 5.265,-6.411 8.393,-11.041 13.248,-17.823 2.787,-3.893 5.55,-7.811 8.195,-11.821 1.712,-2.594 3.824,-5.432 4.805,-8.494 2.97,-9.269 -10.284,-14.984 -13.254,-5.714 -0.462,1.441 0.342,-0.563 0.211,-0.345 -0.349,0.575 -0.666,1.174 -1.013,1.75 -1.066,1.768 -2.21,3.48 -3.355,5.184 -3.034,4.513 -6.18,8.936 -9.36,13.325 -3.057,4.22 -6.151,8.409 -9.321,12.527 -1.201,1.561 -3.036,1.229 -4.383,-0.276 -3.893,-4.348 -8.262,-9.232 -12.013,-13.724 -5.673,-6.794 -9.734,-13.484 -16.378,-19.635 -2.923,-2.707 -9.122,-1.516 -11.13,1.65 -3.773,5.948 -5.934,11.65 -9.345,17.86 -2.313,4.209 -8.287,15.631 -10.533,15.534 -1.917,-0.083 -4.818,-5.475 -6.926,-8.44 C 21.092,-27.336 16.16,-35.913 13.894,-45.33 11.589,-54.905 -2.324,-52.712 0,-43.055"
   style="fill:#2f2f2f;fill-rule:nonzero;stroke:#1b2031;stroke-width:5.46px"
   id="path13674" />
                    </g>
                </g>
                <g
   transform="rotate(1.1801987,6949.3673,-59035.742)"
   id="g13718">
                    <g
   transform="translate(554.578)"
   id="g13712">
                        <path
   d="m 693.339,359.166 c 0,0 -14.497,122.819 83.563,122.322 47.369,-0.24 57.491,-23.217 57.491,-23.217 74.794,24.469 99.98,-50.977 29.385,-75.612 2.333,-2.46 5.83,-7.992 6.229,-12.242 C 813.8,332.562 754.701,333.444 693.339,359.166 Z"
   style="fill:#ffffff"
   id="path13679" />
                        <clipPath
   id="_clip4">
                            <path
   d="m 693.339,359.166 c 0,0 -14.497,122.819 83.563,122.322 47.369,-0.24 57.491,-23.217 57.491,-23.217 74.794,24.469 99.98,-50.977 29.385,-75.612 2.333,-2.46 5.83,-7.992 6.229,-12.242 C 813.8,332.562 754.701,333.444 693.339,359.166 Z"
   id="path13681" />
                        </clipPath>
                        <g
   clip-path="url(#_clip4)"
   id="g13708">
                            <path
   d="m 709.352,367.839 c 18.5,-16.431 122.538,-17.003 143.043,5.37 -16.108,21.748 -129.512,16.625 -143.043,-5.37 z"
   style="fill:#672c29"
   id="path13684" />
                            <clipPath
   id="_clip5">
                                <path
   d="m 709.352,367.839 c 18.5,-16.431 122.538,-17.003 143.043,5.37 -16.108,21.748 -129.512,16.625 -143.043,-5.37 z"
   id="path13686" />
                            </clipPath>
                            <g
   clip-path="url(#_clip5)"
   id="g13706">
                                <g
   transform="matrix(0.884685,0,0,0.758032,90.0467,89.9006)"
   id="g13704">
                                    <path
   d="m 709.352,367.839 c 18.5,-16.431 122.538,-17.003 143.043,5.37 -16.108,21.748 -129.512,16.625 -143.043,-5.37 z"
   style="fill:#794441"
   id="path13689" />
                                    <clipPath
   id="_clip6">
                                        <path
   d="m 709.352,367.839 c 18.5,-16.431 122.538,-17.003 143.043,5.37 -16.108,21.748 -129.512,16.625 -143.043,-5.37 z"
   id="path13691" />
                                    </clipPath>
                                    <g
   clip-path="url(#_clip6)"
   id="g13702">
                                        <g
   transform="matrix(1.13035,0,0,0.808699,-99.3562,71.6996)"
   id="g13696">
                                            <path
   d="m 787.501,376.802 c -3.318,-2.687 4.085,-2.25 6.6,-0.495 7.208,5.03 -4.331,7.394 -9.078,5.633 -6.544,-2.426 -10.849,-4.509 -14.775,-9.206 -3.033,-3.628 -4.728,-7.698 -8.992,-10.206 -4.195,-2.468 -13.099,-3.993 -15.05,2.165 -1.263,3.985 0.46,11.904 7.509,12.972 2.752,0.417 6.569,-2.169 6.726,-2.796 1.009,-4.025 -2.881,-5.763 -5.898,-5.442"
   style="fill:none;stroke:#bc8784;stroke-width:3.9px;stroke-linecap:round;stroke-linejoin:miter;stroke-miterlimit:1.5"
   id="path13694" />
                                        </g>
                                        <g
   transform="matrix(1.13035,0,0,1.31921,-101.784,-118.597)"
   id="g13700">
                                            <path
   d="m 795.264,364.618 c 6.201,0.099 13.467,0.36 19.026,3.442 1.908,1.058 4.54,2.597 4.784,5.028 0.563,5.601 -6.382,1.549 -7.651,-0.591"
   style="fill:none;stroke:#bc8784;stroke-width:3.24px;stroke-linecap:round;stroke-linejoin:miter;stroke-miterlimit:1.5"
   id="path13698" />
                                        </g>
                                    </g>
                                </g>
                            </g>
                        </g>
                        <path
   d="m 693.339,359.166 c 0,0 -14.497,122.819 83.563,122.322 47.369,-0.24 57.491,-23.217 57.491,-23.217 74.794,24.469 99.98,-50.977 29.385,-75.612 2.333,-2.46 5.83,-7.992 6.229,-12.242 C 813.8,332.562 754.701,333.444 693.339,359.166 Z"
   style="fill:none;stroke:#000000;stroke-width:5.38px;stroke-linecap:round;stroke-linejoin:miter;stroke-miterlimit:1.5"
   id="path13710" />
                    </g>
                    <g
   transform="translate(554.578)"
   id="g13716">
                        <path
   d="m 711.318,366.386 c 10.669,-1.123 19.377,-19.646 -21.62,-37.452 -8.238,-3.578 -28.523,-16.427 -28.525,-40.204 -0.002,-18.365 15.462,-34.954 34.902,-46.648 -15.76,26.101 -6.896,57.51 33.895,61.749 76.506,7.951 111.823,23.289 120.619,69.267 -50.973,-36.656 -95.458,-31.816 -139.271,-6.712 z"
   style="fill:#ffffff;fill-opacity:0.52"
   id="path13714" />
                    </g>
                </g>
                <g
   transform="rotate(37.516953,307.79866,418.41806)"
   id="g13728">
                    <g
   transform="matrix(0.664427,-0.979097,0.801895,0.544176,-246.649,416.404)"
   id="g13722">
                        <path
   d="m 228.498,410.079 c 1.617,28.928 -45.819,22.871 -57.125,16.098 -11.305,-6.772 -10.483,-33.084 -10.707,-56.732 -0.173,-18.197 10.889,-64.426 10.889,-64.426 8.836,13.919 11.21,11.959 17.721,-9.663 0,0 9.726,21.876 14.583,22.333 4.857,0.457 14.557,-19.59 14.557,-19.59 0,0 -12.356,47.604 -0.278,45.591 12.079,-2.014 27.92,-28.186 20.149,0 -15.9,57.667 -10.453,54.512 -9.789,66.389 z"
   style="fill:#ffba00"
   id="path13720" />
                    </g>
                    <g
   transform="matrix(0.664427,-0.979097,0.801895,0.544176,-246.649,416.404)"
   id="g13726">
                        <path
   d="m 204.05,314.214 c 0.211,-0.129 0.861,-0.541 1.265,-0.926 1.071,-1.022 2.201,-2.49 3.316,-4.11 3.807,-5.534 7.335,-12.846 7.335,-12.846 0.736,-1.521 2.29,-2.126 3.611,-1.405 1.321,0.721 1.989,2.537 1.551,4.221 0,0 -4.097,15.812 -5.176,28.6 -0.349,4.14 -0.417,7.934 0.222,10.605 0.271,1.131 0.635,2.037 1.578,1.88 2.915,-0.483 6.045,-2.634 8.97,-4.883 3.939,-3.029 7.535,-6.299 9.874,-7.444 2.599,-1.272 4.473,-0.51 5.552,1.132 0.598,0.911 1.118,2.429 0.996,4.849 -0.111,2.217 -0.774,5.718 -2.213,10.89 -1.932,6.857 -3.472,12.881 -4.914,18.103 -0.435,1.574 -0.872,3.064 -1.301,4.491 -0.729,2.424 -1.405,4.638 -2.063,6.693 -2.203,6.87 -3.816,11.754 -4.772,15.719 -0.206,0.853 -0.424,1.623 -0.541,2.389 -0.022,0.142 -0.039,0.284 -0.054,0.424 l -0.034,0.528 c -0.556,8.694 0.901,10.79 1.246,16.955 0.685,12.104 -7.217,18.101 -17.474,20.473 -10.421,2.409 -23.277,1.105 -32.001,-1.361 -0.538,-0.152 -1.071,-0.267 -1.564,-0.474 h -0.001 c -2.677,-0.553 -4.893,-0.802 -6.535,-1.419 -3.713,-1.403 -6.683,-4.478 -8.755,-9.142 -0.737,-1.66 -1.17,-3.597 -1.625,-5.597 -2.653,-11.677 -2.41,-27.914 -2.555,-43.076 -0.064,-6.51 1.253,-16.516 3.015,-26.792 3.232,-18.837 7.928,-38.608 7.928,-38.608 0.288,-1.204 1.105,-2.109 2.114,-2.343 1.009,-0.234 2.041,0.243 2.67,1.234 1.7,2.67 3.134,4.721 4.406,6.101 0.492,0.533 0.942,0.95 1.375,1.223 0.199,0.125 0.364,0.253 0.54,0.213 0.264,-0.06 0.459,-0.354 0.71,-0.689 0.403,-0.538 0.797,-1.242 1.208,-2.101 1.408,-2.936 2.88,-7.423 4.712,-13.537 0.377,-1.251 1.319,-2.118 2.409,-2.214 1.089,-0.097 2.124,0.594 2.645,1.766 0,0 3.577,8.02 7.432,14.305 1.143,1.863 2.305,3.57 3.402,4.821 0.382,0.436 0.751,0.81 1.106,1.095 0.113,0.091 0.284,0.195 0.39,0.257 z m 33.722,20.773 c -0.831,0.546 -1.912,1.292 -2.813,2.026 -4.699,3.826 -10.958,9.212 -16.434,10.133 -2.238,0.374 -3.97,-0.343 -5.316,-1.732 -1.477,-1.523 -2.519,-4.096 -2.953,-7.5 -0.752,-5.901 0.288,-14.817 1.657,-22.815 -0.177,0.24 -0.355,0.475 -0.533,0.704 -1.474,1.9 -2.957,3.418 -4.279,4.287 -1.24,0.814 -2.421,1.13 -3.459,1.03 -0.998,-0.096 -2.153,-0.615 -3.347,-1.644 -1.267,-1.091 -2.68,-2.827 -4.088,-4.917 -2.306,-3.423 -4.656,-7.833 -6.426,-11.379 -1.556,4.648 -2.918,7.988 -4.232,10.105 -1.452,2.339 -2.984,3.492 -4.509,3.834 -1.648,0.37 -3.458,-0.13 -5.443,-1.916 -0.864,-0.777 -1.8,-1.842 -2.826,-3.195 -1.641,7.207 -4.396,19.817 -6.511,32.034 -1.684,9.728 -2.974,19.199 -2.917,25.365 0.118,12.276 -0.031,25.274 1.375,35.819 0.54,4.052 1.479,7.634 2.447,10.813 1.138,3.74 2.243,6.939 4.659,9.018 1.35,1.161 3.166,2.621 5.634,3.66 h 0.001 c 0.515,0.106 1.03,0.3 1.569,0.447 8.735,2.385 21.57,3.732 31.987,1.331 10.247,-2.363 18.15,-8.323 17.483,-20.416 -0.335,-6.001 -1.892,-8.164 -1.299,-16.274 0.028,-0.388 0.044,-0.793 0.087,-1.209 0.025,-0.381 0.049,-0.774 0.063,-1.182 0.131,-3.835 0.234,-8.724 0.996,-15.581 0.192,-1.724 0.398,-3.532 0.703,-5.488 0.391,-2.498 0.877,-5.18 1.513,-8.078 1.246,-5.681 3.051,-12.134 5.081,-19.665 0.801,-2.93 1.726,-5.762 2.13,-7.615 z m 0.205,-1.399 c 0.012,-0.527 -0.121,-0.802 -0.457,-0.748 -0.203,0.033 0.155,0.39 0.239,0.517 0.055,0.083 0.13,0.16 0.218,0.231 z"
   style="fill:#1b2031"
   id="path13724" />
                    </g>
                </g>
            </g>
        </g>
    </g>
    <defs
   id="defs13746">
        <radialGradient
   id="_Radial3"
   cx="0"
   cy="0"
   r="1"
   gradientUnits="userSpaceOnUse"
   gradientTransform="matrix(0,1,1,0,-8.49688e-6,8.49688e-6)"><stop
     offset="0"
     style="stop-color:rgb(247,148,29);stop-opacity:1"
     id="stop13735" /><stop
     offset="0.5"
     style="stop-color:rgb(249,155,23);stop-opacity:1"
     id="stop13737" /><stop
     offset="0.69"
     style="stop-color:rgb(252,171,11);stop-opacity:1"
     id="stop13739" /><stop
     offset="0.86"
     style="stop-color:rgb(255,186,0);stop-opacity:1"
     id="stop13741" /><stop
     offset="1"
     style="stop-color:rgb(255,186,0);stop-opacity:1"
     id="stop13743" /></radialGradient>
    </defs>
<path
   style="clip-rule:evenodd;fill:#076d14;fill-opacity:0.99689;fill-rule:evenodd;stroke-width:0.219135;stroke-miterlimit:10"
   d="m 208.1189,146.89352 c 0.005,-0.0535 0.4186,-0.67512 0.91989,-1.38109 2.1646,-3.04881 4.11365,-6.98438 5.31569,-10.73351 1.38798,-4.32904 1.86072,-6.97907 2.73792,-15.34095 l 0.83053,-7.91881 1.02908,1.90327 c 3.51484,6.50059 5.89594,15.13118 5.82922,21.12881 l -0.0212,1.90472 1.71663,-1.71798 c 2.41201,-2.41382 3.81095,-4.20663 5.54216,-7.10251 3.60502,-6.03024 5.28605,-11.44004 7.81355,-25.14539 0.58014,-3.145597 1.15018,-6.099729 1.26688,-6.564693 l 0.21213,-0.84542 0.49222,1.505682 c 2.73244,8.358401 4.61315,21.508211 4.47158,31.265061 -0.0216,1.48723 0.001,2.75244 0.051,2.81158 0.25029,0.29828 4.36523,-8.10088 6.07412,-12.39817 6.55385,-16.48067 8.57872,-32.774982 6.28154,-50.547885 -0.46837,-3.623697 -1.20124,-7.694117 -1.38821,-7.710483 -0.0902,-0.0079 -0.76538,0.27979 -1.50062,0.639251 -4.32686,2.115505 -11.61858,3.052348 -18.84,2.420555 -5.81197,-0.508485 -10.51968,-1.672175 -15.72469,-3.886972 -7.17575,-3.05337 -11.26851,-6.828072 -15.17802,-13.998491 -1.82165,-3.341086 -3.39608,-7.210855 -6.44795,-15.84838 -3.4932,-9.886629 -5.75254,-15.141064 -8.44546,-19.6412011 -0.4531,-0.757169 -0.7889,-1.405959 -0.74626,-1.441759 0.0428,-0.0358 1.24595,0.62044 2.67397,1.458331 8.43259,4.9478001 14.67313,6.9937181 28.52797,9.3527071 11.51158,1.960025 14.82937,3.043548 20.95604,6.843834 7.93701,4.923215 12.40103,10.40284 14.8378,18.213459 0.39874,1.278042 0.80323,2.330554 0.89892,2.338923 0.0957,0.0083 0.23442,-0.676309 0.30839,-1.52149 0.46061,-5.264696 2.35791,-10.784173 5.39708,-15.700646 7.5007,-12.133954 23.67651,-22.8490641 41.72933,-27.6422041 2.02482,-0.5376 7.06676,-1.62078004 7.40611,-1.59107003627 0.11049,0.008999996 -0.41496,0.80282999627 -1.16747,1.76261003627 -2.87063,3.66138 -5.46495,8.7693731 -7.11595,14.0105571 -1.02551,3.255455 -1.61216,5.783275 -3.23252,13.92795 -2.18941,11.005085 -3.36885,14.76837 -5.91754,18.881499 -2.93026,4.728863 -10.49588,10.195445 -16.75008,12.102882 -2.91519,0.889094 -5.11475,1.062305 -8.35015,0.657578 -2.42307,-0.303108 -2.98937,-0.45497 -4.95354,-1.328435 -1.21974,-0.54239 -2.24919,-0.959774 -2.28771,-0.927477 -0.0386,0.03235 0.18915,1.653104 0.5059,3.601749 1.10559,6.801535 1.60884,13.292778 1.55786,20.093923 -0.0322,4.2925 -1.17432,15.196422 -2.00214,19.114095 -2.34722,11.10846 -6.15363,21.27845 -11.70575,31.27552 -0.85453,1.53864 -1.51842,2.83952 -1.47536,2.89084 0.0431,0.0513 1.04869,-0.42027 2.23472,-1.04799 7.02286,-3.71693 11.13935,-8.09458 15.8924,-16.90075 l 1.10439,-2.04617 0.0554,2.4776 c 0.0975,4.36165 -0.34779,10.30361 -0.95435,12.73351 -0.98522,3.94656 -3.11991,8.066 -6.24644,12.05379 -0.8261,1.05371 -1.51083,2.0163 -1.52159,2.1391 -0.0126,0.14537 0.49944,0.21445 1.4675,0.19792 7.15034,-0.12201 13.97924,-5.22731 19.02766,-14.22514 l 1.09212,-1.94653 0.0436,0.94604 c 0.0961,2.08832 -0.75516,13.4135 -1.07144,14.25439 -0.17347,0.46202 -0.27373,0.89016 -0.22213,0.95162 0.18394,0.21922 2.83875,-0.40464 4.44673,-1.04492 0.89948,-0.35816 2.24181,-0.98954 2.98296,-1.40306 0.74118,-0.4135 1.37905,-0.71433 1.41754,-0.66848 0.0385,0.0458 -0.17602,0.8526 -0.47625,1.79288 -0.30058,0.94018 -0.91969,2.91412 -1.37574,4.38652 -0.45602,1.47241 -1.03405,3.22836 -1.28448,3.9021 l -0.45542,1.22496 -39.14918,-3.4251 c -21.53204,-1.88381 -39.14534,-3.46899 -39.14064,-3.52258 z"
   id="path2026"
   inkscape:label="plont" /></svg>
