<?xml version="1.0" encoding="UTF-8" standalone="no"?>
<svg
   width="506.95087"
   height="623.90033"
   viewBox="0 0 506.95087 623.90033"
   version="1.1"
   xml:space="preserve"
   style="clip-rule:evenodd;fill-rule:evenodd;stroke-miterlimit:10"
   id="svg9506"
   sodipodi:docname="dragnconfused_plont.svg"
   inkscape:version="1.2.2 (b0a8486541, 2022-12-01)"
   xmlns:inkscape="http://www.inkscape.org/namespaces/inkscape"
   xmlns:sodipodi="http://sodipodi.sourceforge.net/DTD/sodipodi-0.dtd"
   xmlns="http://www.w3.org/2000/svg"
   xmlns:svg="http://www.w3.org/2000/svg"><defs
   id="defs9510" /><sodipodi:namedview
   id="namedview9508"
   pagecolor="#ffffff"
   bordercolor="#000000"
   borderopacity="0.25"
   inkscape:showpageshadow="2"
   inkscape:pageopacity="0.0"
   inkscape:pagecheckerboard="0"
   inkscape:deskcolor="#d1d1d1"
   showgrid="false"
   inkscape:zoom="1.4960938"
   inkscape:cx="251.65535"
   inkscape:cy="313.14883"
   inkscape:window-width="949"
   inkscape:window-height="920"
   inkscape:window-x="962"
   inkscape:window-y="24"
   inkscape:window-maximized="1"
   inkscape:current-layer="svg9506" />
    <g
   transform="translate(40.358,627.0964)"
   id="g9480">
        <path
   d="m 0,-483.21 c 26.867,7.704 26.698,28.924 26.698,28.924 l 77.159,15.59 c 0,0 29.762,-38.993 95.279,-33.438 18.136,1.538 158.177,-47.299 158.177,-47.299 0,0 28.755,77.688 -51.003,83.955 74.881,-5.884 159.151,-15.009 159.151,-15.009 0,0 18.852,72.4 -97.319,87.092 46.949,70.244 55.145,140.317 62.171,183.962 9.534,59.225 -2,117.667 -17,141 -111.391,74.656 -227.667,12.667 -246.667,-21.333 56,-49 105.654,-144.462 38.451,-198.018 -45.252,-36.063 -196.273,-42.304 -220.147,-65.736 -19.941,-19.57 -25.308,-63.134 -25.308,-63.134 l 9.651,-92.342 c 0,0 3.84,-11.918 30.707,-4.214"
   style="fill:#ffba00;fill-rule:nonzero"
   id="path9478" />
    </g>
    <g
   transform="translate(293.6038,258.8364)"
   id="g9484">
        <path
   d="M 0,-14.547 C -0.016,10.495 -34.736,23.312 -50.319,17.161 -78.096,6.196 -75.903,-15.656 -75.903,-37.859 Z"
   style="fill:#2f2f2f;fill-rule:nonzero;stroke:#1b2031;stroke-width:5px"
   id="path9482" />
    </g>
    <g
   transform="translate(200.3038,186.9238)"
   id="g9488">
        <path
   d="m 0,18.896 c -0.604,-0.267 -1.165,-0.656 -1.646,-1.165 -1.94,-2.054 -1.849,-5.292 0.205,-7.232 0.8,-0.756 7.998,-7.44 14.353,-9.389 6.263,-1.919 15.35,-0.854 16.365,-0.726 2.805,0.355 4.79,2.912 4.438,5.715 C 33.362,8.902 30.803,10.89 28,10.537 24.997,10.164 19.054,9.93 15.911,10.894 12.442,11.957 7.163,16.447 5.586,17.936 4.042,19.395 1.828,19.705 0,18.896"
   style="fill:#2f2f2f;fill-rule:nonzero"
   id="path9486" />
    </g>
    <g
   transform="translate(200.3038,186.9238)"
   id="g9492">
        <path
   d="m 0,18.896 c -0.604,-0.267 -1.165,-0.656 -1.646,-1.165 -1.94,-2.054 -1.849,-5.292 0.205,-7.232 0.8,-0.756 7.998,-7.44 14.353,-9.389 6.263,-1.919 15.35,-0.854 16.365,-0.726 2.805,0.355 4.79,2.912 4.438,5.715 C 33.362,8.902 30.803,10.89 28,10.537 24.997,10.164 19.054,9.93 15.911,10.894 12.442,11.957 7.163,16.447 5.586,17.936 4.042,19.395 1.828,19.705 0,18.896 Z"
   style="fill:none;fill-rule:nonzero;stroke:#1b2031;stroke-width:5px"
   id="path9490" />
    </g>
    <g
   transform="translate(11.6798,264.8924)"
   id="g9496">
        <path
   d="M 0,47.589 C -4.062,47.233 -7.531,43.914 -8.285,39.234 -9.193,33.593 -5.81,28.112 -0.729,26.991 L 109.8,1.716 c 8.118,-1.789 16.632,0.15 23.358,5.319 l 16.662,12.806 c 4.211,3.236 5.204,9.714 2.219,14.468 -2.986,4.756 -8.82,5.987 -13.03,2.749 L 122.345,24.252 c -2.664,-2.047 -6.038,-2.816 -9.255,-2.108 L 2.561,47.419 C 1.695,47.61 0.834,47.662 0,47.589"
   style="fill:#2f2f2f;fill-rule:nonzero"
   id="path9494" />
    </g>
    <g
   transform="translate(11.6798,264.8924)"
   id="g9500">
        <path
   d="M 0,47.589 C -4.062,47.233 -7.531,43.914 -8.285,39.234 -9.193,33.593 -5.81,28.112 -0.729,26.991 L 109.8,1.716 c 8.118,-1.789 16.632,0.15 23.358,5.319 l 16.662,12.806 c 4.211,3.236 5.204,9.714 2.219,14.468 -2.986,4.756 -8.82,5.987 -13.03,2.749 L 122.345,24.252 c -2.664,-2.047 -6.038,-2.816 -9.255,-2.108 L 2.561,47.419 C 1.695,47.61 0.834,47.662 0,47.589 Z"
   style="fill:none;fill-rule:nonzero;stroke:#1b2031;stroke-width:5px"
   id="path9498" />
    </g>
    <g
   transform="matrix(-0.530941,-0.847409,-0.847409,0.530941,23.2398,172.1271)"
   id="g9504">
        <path
   d="m -11.278,-20.376 c -7.351,0 -13.31,5.959 -13.31,13.31 0,7.35 5.959,13.309 13.309,13.309 7.351,0 13.31,-5.959 13.31,-13.309 0,-7.351 -5.959,-13.31 -13.309,-13.31"
   style="fill:#231f20;fill-rule:nonzero"
   id="path9502" />
    </g>
<path
   style="clip-rule:evenodd;fill:#076d14;fill-opacity:0.99689;fill-rule:evenodd;stroke-width:0.219135;stroke-miterlimit:10"
   d="m 176.12161,169.07106 c -0.009,-0.053 0.2296,-0.76045 0.53109,-1.57211 1.30175,-3.50517 2.16579,-7.81108 2.35653,-11.74358 0.22024,-4.54077 -0.009,-7.22285 -1.3259,-15.52684 l -1.24733,-7.86394 1.48663,1.57207 c 5.07754,5.36938 9.61128,13.08962 11.09914,18.90015 l 0.47253,1.84529 1.2135,-2.10373 c 1.70507,-2.95585 2.59234,-5.04965 3.51507,-8.29492 1.92142,-6.75781 2.14501,-12.41836 1.03919,-26.31088 -0.25377,-3.18856 -0.46774,-6.18957 -0.47537,-6.6689 l -0.0139,-0.87151 0.86516,1.32698 c 4.80264,7.36639 10.02269,19.58137 12.41121,29.0424 0.36407,1.44214 0.71369,2.6583 0.77693,2.70258 0.31896,0.22334 2.11983,-8.95466 2.65827,-13.54781 2.06503,-17.61537 -0.19637,-33.878541 -7.01525,-50.451294 -1.3903,-3.379001 -3.15167,-7.121043 -3.33652,-7.088452 -0.0891,0.01572 -0.66689,0.468343 -1.28403,1.005851 -3.63191,3.163296 -10.4327,5.955457 -17.57157,7.214228 -5.74553,1.013095 -10.59401,1.1075 -16.1949,0.315322 -7.72151,-1.092107 -12.65178,-3.678906 -18.28391,-9.593144 -2.62433,-2.755756 -5.14667,-6.086177 -10.3301,-13.639504 -5.93303,-8.645643 -9.47534,-13.136275 -13.24123,-16.786097 -0.63363,-0.614098 -1.12591,-1.153867 -1.09397,-1.199489 0.032,-0.04564 1.36407,0.276828 2.9603,0.71657 9.42584,2.596692 15.98327,2.957726 29.97655,1.650441 11.62664,-1.086181 15.11182,-0.898285 22.01331,1.186811 8.94077,2.701211 14.67093,6.838747 19.0462,13.752545 0.71593,1.131295 1.37906,2.04325 1.47364,2.02657 0.0946,-0.01671 0.0514,-0.713939 -0.0959,-1.549464 -0.91768,-5.204522 -0.51357,-11.026984 1.14956,-16.562525 4.10462,-13.661826 16.95597,-28.198429 33.15311,-37.5006457 1.81668,-1.04336 6.40647,-3.39456999 6.74195,-3.45371998713 C 239.66074,-0.01928669 239.35856,0.88320331 238.88012,2.0050433 c -1.82519,4.2796 -3.00908,9.8849867 -3.24731,15.3748887 -0.14798,3.409947 -0.0604,6.003473 0.48246,14.290004 0.73352,11.196756 0.56828,15.137072 -0.82902,19.7697 -1.60649,5.326138 -7.49946,12.564574 -13.04687,16.025729 -2.58575,1.613304 -4.66553,2.349899 -7.89543,2.796347 -2.41895,0.334357 -3.00526,0.334228 -5.12857,-0.0011 -1.31856,-0.208253 -2.42098,-0.344937 -2.44981,-0.303762 -0.0289,0.04122 0.61055,1.54782 1.42086,3.348086 2.82828,6.283627 4.99444,12.42344 6.70547,19.006039 1.0799,4.15456 2.79881,14.982545 3.01318,18.980985 0.60783,11.33745 -0.4367,22.14609 -3.2122,33.23951 -0.42718,1.70738 -0.73177,3.13575 -0.67689,3.17418 0.0549,0.0384 0.90419,-0.67737 1.88733,-1.59067 5.82156,-5.40793 8.66476,-10.70184 10.97665,-20.43812 l 0.53717,-2.26228 0.69478,2.37882 c 1.2231,4.18779 2.33083,10.04254 2.37384,12.54664 0.0698,4.06707 -0.92597,8.59864 -2.91385,13.25976 -0.52523,1.23162 -0.93749,2.33863 -0.91609,2.46003 0.0254,0.14368 0.53792,0.0779 1.46872,-0.18864 6.87512,-1.96849 12.14998,-8.66729 14.69756,-18.66515 l 0.55113,-2.16286 0.28689,0.90253 c 0.63334,1.99228 2.74225,13.15189 2.65439,14.04599 -0.048,0.49117 -0.0339,0.93067 0.0319,0.97669 0.2344,0.16413 2.63727,-1.12558 4.02475,-2.16022 0.77614,-0.57876 1.90932,-1.53605 2.5182,-2.1273 0.60889,-0.59124 1.14717,-1.04691 1.1962,-1.01259 0.049,0.0343 0.0507,0.86911 0.004,1.85506 -0.047,0.98594 -0.13413,3.05285 -0.19355,4.59312 -0.0594,1.54026 -0.16326,3.38598 -0.23078,4.10158 l -0.12286,1.30109 -38.70169,6.82417 c -21.28592,3.75328 -38.70932,6.78077 -38.71866,6.72779 z"
   id="path2026"
   inkscape:label="plont" /></svg>
