<?xml version="1.0" encoding="UTF-8" standalone="no"?>
<svg
   width="512"
   height="591.18463"
   viewBox="0 0 512 591.18463"
   version="1.1"
   xml:space="preserve"
   style="clip-rule:evenodd;fill-rule:evenodd;stroke-linejoin:round;stroke-miterlimit:2"
   id="svg11287"
   sodipodi:docname="dragnheart_plont.svg"
   inkscape:version="1.2.2 (b0a8486541, 2022-12-01)"
   xmlns:inkscape="http://www.inkscape.org/namespaces/inkscape"
   xmlns:sodipodi="http://sodipodi.sourceforge.net/DTD/sodipodi-0.dtd"
   xmlns="http://www.w3.org/2000/svg"
   xmlns:svg="http://www.w3.org/2000/svg"
   xmlns:serif="http://www.serif.com/"><defs
   id="defs11291" /><sodipodi:namedview
   id="namedview11289"
   pagecolor="#ffffff"
   bordercolor="#000000"
   borderopacity="0.25"
   inkscape:showpageshadow="2"
   inkscape:pageopacity="0.0"
   inkscape:pagecheckerboard="0"
   inkscape:deskcolor="#d1d1d1"
   showgrid="false"
   inkscape:zoom="1.4960938"
   inkscape:cx="256"
   inkscape:cy="176.79373"
   inkscape:window-width="1906"
   inkscape:window-height="920"
   inkscape:window-x="5"
   inkscape:window-y="42"
   inkscape:window-maximized="1"
   inkscape:current-layer="svg11287" />
    <rect
   id="Artboard1"
   x="0"
   y="79.184647"
   width="512"
   height="512"
   style="fill:none" />
    <clipPath
   id="_clip1">
        <rect
   id="Artboard11"
   serif:id="Artboard1"
   x="0"
   y="0"
   width="512"
   height="512" />
    </clipPath>
    <g
   clip-path="url(#_clip1)"
   id="g11285"
   transform="translate(0,79.184649)">
        <g
   id="Layer-2"
   serif:id="Layer 2">
            <g
   transform="translate(42.8599,460.333)"
   id="g11252">
                <path
   d="m 24.855,-399.627 c 26.196,7.325 26.175,28.061 26.175,28.061 l 43.612,-12.723 c 0,0 29.19,-22.415 61.113,-14.392 12.095,0.262 13.681,11.241 78.434,7.337 5.351,-0.322 11.667,1.491 17.119,-0.597 61.776,-23.65 128.309,-53.305 128.309,-53.305 0,0 36.061,52.85 -42.734,101.247 0,1.541 -0.25,-0.29 0.75,1.666 1.882,-0.208 11.231,-2.256 127.325,-40.974 0,0 29.682,73.974 -73.204,107.789 -10.834,4.167 -5.731,12.44 -1.614,21.685 17.272,38.785 13,93 -0.5,151.5 -14.182,61.46 -64.814,131.449 -77.042,142.649 -124.517,28.3 -246.941,-59.75 -223.46,-79.272 31.579,-26.254 72.562,-60.575 89.642,-84.377 15.492,-21.59 32.86,-70.564 11.36,-74.064 -55.855,-9.093 -178.831,-10.145 -200.137,-30.837 -19.537,-18.972 -25.054,-61.501 -25.054,-61.501 l 11.264,-106.119 c 0,0 22.446,-11.097 48.642,-3.773"
   style="fill:#ffba00;fill-rule:nonzero"
   id="path11250" />
            </g>
            <g
   transform="matrix(-0.829036,0.559195,0.559195,0.829036,55.3537,93.8239)"
   id="g11256">
                <path
   d="m 6.534,-21.372 c 6.448,0.027 11.676,5.28 11.676,11.733 0,6.454 -5.228,11.663 -11.676,11.637 -6.448,-0.027 -11.676,-5.28 -11.676,-11.733 0,-6.454 5.228,-11.663 11.676,-11.637"
   style="fill:#231f20;fill-rule:nonzero"
   id="path11254" />
            </g>
            <g
   transform="matrix(-0.655273,0.755392,0.755392,0.655273,212.194,143.971)"
   id="g11260">
                <path
   d="M 22.091,-41.365 C 39.547,-40.883 51.156,-22.317 50.826,-9.19 50.495,3.938 39.547,13.353 22.091,12.87 4.636,12.387 -13.9,-5.223 -11.585,-21.889 c 1.813,-13.05 12.7,-20.056 33.676,-19.476"
   style="fill:#2f2f2f;fill-rule:nonzero;stroke:#1b2031;stroke-width:4.34px"
   id="path11258" />
            </g>
        </g>
        <g
   transform="matrix(0.958171,0,0,0.978364,-144.204,-7.7115)"
   id="g11271">
            <g
   transform="translate(-993.442,5.79593)"
   id="g11265">
                <path
   d="m 1286.74,506.204 c 0,0 -143.87,-105.245 -142.79,-245.559 0.3,-39.993 41.16,-81.599 80.52,-82.04 55.65,-0.625 104.15,77.395 104.15,77.395 0,0 46.87,-56.243 103.61,-56.235 48.99,0.007 73.14,42.777 73,76.23 -0.44,112.629 -218.49,230.209 -218.49,230.209 z"
   style="fill:#f84b2e"
   id="path11263" />
            </g>
            <g
   transform="translate(-994.205,6.95412)"
   id="g11269">
                <path
   d="m 1169.75,275.994 c -22.68,-10.832 -1.43,-45.628 17.18,-63.345 23.57,-22.448 56.59,-17.805 59.05,-4.295 5.63,30.914 -21.66,28.853 -32.75,39.594 -11.03,10.684 -15.52,41.402 -43.48,28.046 z"
   style="fill:#fd8160"
   id="path11267" />
            </g>
        </g>
        <g
   transform="matrix(1.14083,0.31402,-0.31402,1.14083,103.158,-130.634)"
   id="g11277">
            <path
   d="m 278.432,449.225 c 1.616,28.928 -89.278,24.574 -89.278,24.574 0,0 -30.628,-42.619 -28.488,-104.354 0.63,-18.187 10.889,-64.426 10.889,-64.426 8.836,13.919 11.21,11.959 17.721,-9.663 0,0 9.726,21.876 14.583,22.333 4.857,0.457 14.557,-19.59 14.557,-19.59 0,0 6.124,52.557 18.203,50.544 12.078,-2.013 27.919,-28.186 20.148,0 -15.9,57.667 21.001,88.705 21.665,100.582 z"
   style="fill:#ffba00"
   id="path11273" />
            <path
   d="m 185.812,468.585 c -0.075,-0.062 -0.118,-0.052 -0.214,-0.077 -0.979,-0.253 -0.94,-0.114 -2.017,-0.349 -0.086,-0.019 -0.11,0.005 -0.181,-0.049 -0.053,-0.04 -0.067,-0.115 -0.101,-0.173 -0.468,-0.803 -0.965,-1.673 -1.485,-2.609 -4.783,-8.61 -11.558,-22.77 -16.537,-41.066 -4.24,-15.582 -7.173,-34.166 -6.454,-54.881 0.216,-6.365 1.593,-16.135 3.306,-26.183 3.206,-18.802 7.58,-38.589 7.58,-38.589 0.165,-0.747 0.765,-1.321 1.519,-1.453 0.754,-0.132 1.513,0.203 1.923,0.849 2.164,3.402 3.892,5.817 5.409,7.144 0.329,0.288 0.638,0.515 0.941,0.668 0.263,0.133 0.5,0.207 0.734,0.104 0.645,-0.286 1.167,-1.059 1.794,-2.178 1.618,-2.89 3.276,-7.827 5.412,-14.94 0.231,-0.767 0.915,-1.31 1.715,-1.36 0.799,-0.05 1.546,0.402 1.872,1.134 0,0 3.519,7.903 7.359,14.235 1.408,2.323 2.851,4.432 4.177,5.803 0.33,0.342 0.649,0.632 0.957,0.854 0.194,0.141 0.352,0.276 0.519,0.291 0.115,0.011 0.224,-0.073 0.356,-0.143 0.283,-0.148 0.574,-0.361 0.877,-0.618 1.308,-1.106 2.725,-2.934 4.113,-4.974 3.8,-5.588 7.274,-12.776 7.274,-12.776 0.378,-0.781 1.226,-1.218 2.081,-1.074 0.855,0.145 1.513,0.836 1.613,1.698 0,0 2.699,23.16 8.048,37.961 1.501,4.154 3.171,7.634 5.114,9.595 0.879,0.887 1.77,1.448 2.78,1.28 3.018,-0.502 6.254,-2.716 9.277,-5.05 3.769,-2.91 7.209,-6.057 9.502,-7.252 1.62,-0.845 2.968,-0.833 3.88,-0.346 0.607,0.324 1.139,0.862 1.472,1.742 0.268,0.709 0.418,1.776 0.311,3.282 -0.152,2.127 -0.806,5.374 -2.107,10.072 -3.399,12.212 -4.375,23.211 -3.827,33.071 0.033,0.596 0.071,1.188 0.115,1.776 l -1.667,2.068 -0.004,0.006 0.005,0.004 c 0.218,0.185 0.231,0.478 0.207,0.789 l -0.11,0.148 0.011,0.097 0.005,0.046 0.061,0.062 0.021,-0.215 c 0.003,-0.036 0.007,-0.072 0.01,-0.108 l 0.002,-0.03 0.681,-0.921 0.841,-1.135 -0.007,-0.082 -0.056,-0.729 c 7.588,-9.388 4.172,-4.735 0.063,0.811 l 0.064,0.742 c 0.01,0.1 0.091,0.222 0.028,0.3 l -1.35,1.667 c 1.716,1.736 2.658,2.784 -0.269,0.376 l -0.005,-0.038 -0.003,0.004 0.003,0.03 0.005,0.004 c 3.768,31.314 22.349,50.39 24.733,59.827 l 0.045,0.183 0.009,0.039 10e-4,0.005 0.006,0.027 0.035,0.158 0.006,0.029 10e-4,0.007 0.008,0.043 0.029,0.146 0.003,0.021 10e-4,0.007 0.01,0.059 0.022,0.134 0.002,0.015 0.001,0.006 0.011,0.077 0.016,0.119 0.002,0.014 0.01,0.102 0.01,0.098 10e-4,0.006 0.015,0.203 c 0.514,9.127 -8.179,14.948 -20.323,18.635 -26.354,8.002 -68.956,5.959 -68.956,5.959 -0.006,0 -0.012,-0.003 -0.015,-0.008 0,0 -1.142,-1.597 -2.965,-4.623 -0.117,-0.195 -0.314,-0.367 -0.361,-0.603 z m 3.83,-167.942 c -1.599,4.985 -2.971,8.614 -4.291,10.963 -1.162,2.067 -2.387,3.268 -3.582,3.794 -1.354,0.597 -2.776,0.522 -4.32,-0.376 -1.425,-0.83 -3.063,-2.584 -4.99,-5.264 -1.467,6.83 -4.361,20.698 -6.66,34.066 -1.695,9.856 -3.07,19.438 -3.291,25.683 -0.703,20.301 2.175,38.513 6.329,53.785 4.877,17.93 11.519,31.805 16.193,40.25 0.506,0.914 0.988,1.764 1.442,2.549 0.033,0.056 0.09,0.104 0.098,0.168 0.012,0.087 -0.022,0.096 -0.048,0.179 -0.322,1.048 -0.437,0.943 -0.676,1.92 -0.023,0.096 -0.052,0.129 -0.034,0.225 h 10e-4 c 0.186,0.152 0.246,0.406 0.365,0.6 1.843,3.012 2.992,4.603 2.992,4.603 -0.015,-0.009 42.576,2.03 68.93,-5.956 12.141,-3.679 20.837,-9.484 20.332,-18.607 l -0.015,-0.205 -0.011,-0.102 -0.011,-0.107 -0.017,-0.128 -0.012,-0.083 -0.024,-0.149 -0.011,-0.066 -0.032,-0.167 -0.009,-0.05 -0.041,-0.187 -0.007,-0.032 -0.05,-0.209 -0.004,-0.013 c -2.313,-9.14 -19.852,-27.322 -24.345,-56.923 -0.146,-0.958 -0.277,-1.927 -0.393,-2.908 l -0.016,-0.014 c -7.457,9.183 -4.414,4.988 -0.448,-0.371 -0.446,-0.37 -0.966,-0.806 -1.566,-1.314 -0.156,-0.133 -0.041,-0.408 -0.061,-0.613 l -0.045,-0.478 c -1.933,-1.944 -3.218,-3.307 -0.062,-0.702 l 0.046,0.529 0.016,0.173 c 0.636,0.639 1.341,1.341 1.982,1.986 l 0.054,-0.073 -0.047,-0.439 c -0.017,-0.166 -0.154,-0.369 -0.055,-0.502 l -1.088,-0.918 c -0.298,-0.248 -0.595,-0.496 -0.892,-0.744 l -0.016,-0.012 c -0.115,-1.354 -0.202,-2.729 -0.257,-4.126 -0.382,-9.661 0.685,-20.357 3.908,-32.149 1.435,-5.227 2.07,-8.442 1.98,-10.24 -0.199,0.096 -0.414,0.208 -0.596,0.323 -0.761,0.48 -1.626,1.14 -2.573,1.897 -2.636,2.107 -5.844,4.926 -9.134,7.092 -2.556,1.682 -5.176,2.965 -7.639,3.376 -2.197,0.366 -4.301,-0.46 -6.211,-2.387 -2.245,-2.264 -4.287,-6.224 -6.02,-11.022 -3.738,-10.349 -6.211,-24.691 -7.402,-32.736 -1.709,3.103 -3.977,6.941 -6.223,9.894 -1.385,1.822 -2.781,3.317 -4.035,4.2 -1.207,0.849 -2.373,1.187 -3.373,1.092 -0.947,-0.09 -2.07,-0.622 -3.215,-1.654 -1.21,-1.089 -2.548,-2.786 -3.881,-4.791 -2.578,-3.876 -5.188,-8.933 -6.939,-12.53 z"
   style="fill:#1b2031"
   id="path11275" />
        </g>
        <g
   transform="matrix(-1.14083,0.31402,0.31402,1.14083,189.371,-121.603)"
   id="g11283">
            <path
   d="m 254.217,439.891 c -11.78,26.471 -65.063,33.908 -65.063,33.908 0,0 31.324,-29.526 -14.537,-92.019 -10.766,-14.671 -36.637,-55.094 -36.637,-55.094 15.508,5.597 16.186,2.594 8.097,-18.489 0,0 21.083,11.343 25.203,8.731 4.12,-2.611 -0.483,-24.402 -0.483,-24.402 0,0 37.018,37.809 45.336,28.822 8.318,-8.986 4.821,-39.378 15.932,-12.334 22.731,55.331 35.845,100.108 22.152,130.877 z"
   style="fill:#ffba00"
   id="path11279" />
            <path
   d="m 250.838,354.124 c -4.537,-14.325 -10.335,-29.64 -16.947,-45.861 -1.846,-4.516 -3.317,-7.487 -4.499,-9.264 -0.841,-1.265 -1.618,-2.021 -2.269,-2.42 -0.813,-0.501 -1.575,-0.601 -2.263,-0.484 -1.032,0.175 -2.122,0.998 -2.896,2.676 -1.083,2.35 -1.878,6.948 -3.081,11.559 -0.96,3.685 -2.162,7.406 -4.236,9.642 -0.947,1.022 -2.475,0.878 -4.309,0.379 -2.483,-0.675 -5.4,-2.196 -8.502,-4.166 -13.277,-8.434 -29.568,-25.098 -29.568,-25.098 -0.64,-0.654 -1.635,-0.807 -2.442,-0.375 -0.807,0.432 -1.231,1.344 -1.042,2.24 0,0 1.648,7.802 2.057,14.539 0.149,2.451 0.146,4.752 -0.211,6.418 -0.081,0.379 -0.178,0.717 -0.308,1 -0.051,0.111 -0.068,0.226 -0.147,0.277 -0.126,0.08 -0.313,0.06 -0.526,0.068 -0.372,0.012 -0.794,-0.023 -1.257,-0.09 -1.88,-0.272 -4.301,-1.056 -6.826,-2.028 -6.904,-2.656 -14.515,-6.75 -14.515,-6.75 -0.757,-0.407 -1.687,-0.3 -2.332,0.268 -0.646,0.568 -0.869,1.477 -0.562,2.28 2.657,6.919 4.365,11.828 4.852,15.097 0.182,1.227 0.254,2.128 -0.071,2.728 -0.101,0.187 -0.302,0.244 -0.542,0.291 -0.322,0.062 -0.693,0.071 -1.115,0.046 -2.002,-0.12 -4.833,-0.969 -8.609,-2.328 -0.821,-0.297 -1.741,-0.037 -2.286,0.646 -0.545,0.682 -0.595,1.636 -0.124,2.372 0,0 11.042,17.231 21.723,33.272 5.698,8.556 11.296,16.772 15.057,21.878 8.371,11.335 14.159,21.573 18.029,30.735 0.106,0.25 0.21,0.498 0.312,0.747 l 0.151,0.066 2.264,1.014 c -0.02,0.048 0.037,0.097 0.055,0.145 l 0.297,0.787 0.013,0.007 0.005,0.012 -0.006,0.014 -0.012,-0.033 -1.21,-0.613 -1.242,-0.63 -0.168,-0.414 -0.147,-0.355 c -9.299,-4.142 -4.982,-1.915 0.315,0.769 0.092,0.227 0.183,0.452 0.272,0.677 0.035,0.088 0.018,0.226 0.105,0.265 l 1.894,0.848 c -1.993,5.313 -3.444,9.306 0.476,0.254 l -0.018,-0.049 0.021,0.009 0.007,0.018 -0.01,0.022 0.08,0.219 c 2.492,6.877 3.916,13.099 4.571,18.686 2.976,25.394 -9.976,37.628 -9.976,37.628 -0.015,0.014 -0.02,0.037 -0.01,0.056 0.009,0.02 0.03,0.031 0.051,0.028 0,0 23.964,-3.361 43.3,-13.561 9.498,-5.011 17.88,-11.672 21.756,-20.396 6.563,-14.736 6.985,-32.688 3.132,-53.473 -1.65,-8.901 -4.076,-18.324 -7.156,-28.23 v 0 c 11.094,5.848 6.339,3.032 0.259,-0.505 l 0.933,-1.817 c 0.17,-0.331 -0.043,-0.695 -0.248,-1.059 3.048,-6.574 5.562,-12.071 -0.299,-0.683 l 0.057,0.178 c 0.053,0.166 0.146,0.336 0.242,0.505 l -0.626,1.35 -0.569,1.229 h -0.001 l -0.257,-0.813 c -0.013,-0.042 -0.001,-0.104 -0.039,-0.125 z m -76.883,-55.62 c 5.923,5.666 16.514,15.313 25.695,21.128 4.32,2.736 8.371,4.617 11.541,5.032 2.715,0.355 4.903,-0.288 6.429,-1.94 1.699,-1.839 2.989,-4.466 3.981,-7.37 1.274,-3.73 2.082,-7.926 2.876,-11.207 0.284,-1.176 0.564,-2.225 0.871,-3.07 0.065,-0.177 0.151,-0.37 0.238,-0.547 1.162,1.386 2.614,4.3 4.652,9.234 6.654,16.073 12.486,31.253 17.084,45.455 l 2.323,1.229 v 0 0 c -0.02,0.039 0.026,0.083 0.039,0.125 l 0.25,0.809 0.007,0.004 v 0.002 l -0.003,0.007 -0.004,-0.013 -1.165,-0.678 -1.288,-0.749 c -0.019,-0.187 -0.041,-0.372 -0.092,-0.532 l -0.067,-0.204 c -11.309,-5.967 -6.101,-2.904 0.159,0.736 0.043,0.415 0.075,0.839 0.404,1.013 l 1.808,0.956 c -2.956,6.38 -5.242,11.412 0.493,0.277 l -0.006,-0.02 0.013,0.007 v 0 l -0.007,0.013 c 3.047,9.911 5.482,19.326 7.13,28.223 3.851,20.782 3.454,38.73 -3.099,53.467 -3.886,8.716 -12.273,15.364 -21.775,20.361 -18.455,9.705 -41.115,13.18 -43.148,13.477 1.24,-1.242 12.771,-13.519 9.899,-37.605 -0.667,-5.589 -2.111,-11.815 -4.65,-18.68 l -0.088,-0.235 0.005,-0.012 c 9.053,4.034 5.282,2.07 0.216,-0.5 l 0.818,-1.9 c 0.039,-0.09 -0.071,-0.183 -0.106,-0.275 -0.084,-0.215 -0.168,-0.431 -0.254,-0.647 2.094,-5.579 3.78,-10.173 -0.305,-0.762 l 0.112,0.277 0.193,0.485 -0.481,1.281 -0.482,1.285 -0.008,-0.004 -0.308,-0.795 c -0.019,-0.048 -0.01,-0.122 -0.057,-0.143 v -0.001 0 c 0.378,-0.879 0.721,-1.673 1.031,-2.385 -0.116,-0.287 -0.235,-0.576 -0.355,-0.866 -3.905,-9.418 -9.771,-19.952 -18.281,-31.623 -3.717,-5.083 -9.239,-13.268 -14.873,-21.78 -7.185,-10.854 -14.545,-22.245 -18.554,-28.477 2.594,0.694 4.588,0.96 6.02,0.77 1.826,-0.242 3.03,-1.082 3.757,-2.424 0.634,-1.168 0.878,-2.898 0.524,-5.286 -0.388,-2.613 -1.487,-6.226 -3.213,-10.997 3.575,1.755 8.574,4.063 12.865,5.507 2.293,0.771 4.402,1.295 6.034,1.416 1.571,0.116 2.81,-0.161 3.632,-0.682 0.869,-0.551 1.606,-1.552 2.05,-2.998 0.453,-1.476 0.642,-3.526 0.62,-5.829 -0.035,-3.607 -0.564,-7.886 -1.1,-11.34 z"
   style="fill:#1b2031"
   id="path11281" />
        </g>
    </g>
<path
   style="clip-rule:evenodd;fill:#076d14;fill-opacity:0.99689;fill-rule:evenodd;stroke-width:0.219135;stroke-miterlimit:10"
   d="m 206.78993,146.89352 c 0.005,-0.0535 0.4186,-0.67511 0.91989,-1.38109 2.1646,-3.04881 4.11365,-6.98438 5.31569,-10.7335 1.38798,-4.32905 1.86072,-6.97907 2.73792,-15.34096 l 0.83052,-7.91881 1.02909,1.90327 c 3.51483,6.50059 5.89593,15.13119 5.82922,21.12881 l -0.0212,1.90472 1.71663,-1.71797 c 2.412,-2.41383 3.81094,-4.20664 5.54217,-7.10251 3.60501,-6.03025 5.28603,-11.44005 7.81354,-25.1454 0.58014,-3.145597 1.15017,-6.099729 1.26687,-6.564693 l 0.21213,-0.845421 0.49223,1.505686 c 2.73243,8.358408 4.61314,21.508208 4.47158,31.265068 -0.0216,1.48722 0.001,2.75243 0.051,2.81157 0.25029,0.29828 4.36524,-8.10088 6.07412,-12.39817 6.55385,-16.48067 8.57873,-32.77498 6.28155,-50.547886 -0.46838,-3.6237 -1.20123,-7.694112 -1.38821,-7.710475 -0.0902,-0.0079 -0.76539,0.279781 -1.50061,0.639244 -4.32688,2.115503 -11.6186,3.052351 -18.84001,2.420555 -5.81197,-0.508478 -10.51966,-1.672168 -15.72469,-3.886971 -7.17573,-3.053366 -11.26851,-6.828073 -15.17801,-13.998489 -1.82166,-3.341084 -3.39607,-7.210852 -6.44794,-15.848375 -3.49321,-9.886634 -5.75256,-15.141067 -8.44548,-19.6412047 -0.4531,-0.757169 -0.7889,-1.405957 -0.74624,-1.441759 0.0428,-0.03579 1.24594,0.620442 2.67395,1.458331 8.43259,4.9478007 14.67315,6.9937217 28.52797,9.3527087 11.51159,1.960023 14.82938,3.043547 20.95604,6.843832 7.93701,4.923214 12.40105,10.402841 14.8378,18.213459 0.39874,1.278043 0.80324,2.330557 0.89893,2.338927 0.0957,0.0083 0.23442,-0.676311 0.30839,-1.521491 0.46062,-5.264696 2.35792,-10.78417 5.39708,-15.700645 7.5007,-12.133957 23.67651,-22.8490577 41.72933,-27.6421987 2.02482,-0.537602 7.06676,-1.62078095 7.40611,-1.59108395443 0.11043,0.009600004 -0.41496,0.80283400443 -1.16746,1.76262095443 -2.87063,3.661381 -5.46497,8.7693677 -7.11597,14.0105497 -1.02551,3.255455 -1.61216,5.783278 -3.23251,13.927955 -2.18941,11.005082 -3.36884,14.76837 -5.91754,18.881497 -2.93026,4.728865 -10.49589,10.195442 -16.75008,12.102888 -2.9152,0.889089 -5.11475,1.0623 -8.35015,0.657575 -2.42306,-0.303107 -2.98937,-0.454981 -4.95353,-1.328435 -1.21973,-0.542425 -2.2492,-0.959777 -2.28772,-0.927469 -0.0386,0.03232 0.18915,1.6531 0.5059,3.601748 1.10559,6.801532 1.60884,13.29278 1.55786,20.093927 -0.0322,4.292497 -1.17432,15.196418 -2.00214,19.114095 -2.34722,11.10845 -6.15363,21.27845 -11.70575,31.27552 -0.85454,1.53863 -1.51843,2.83951 -1.47537,2.89083 0.043,0.0513 1.0487,-0.42027 2.23472,-1.04799 7.02287,-3.71693 11.13935,-8.09458 15.8924,-16.90075 l 1.10439,-2.04616 0.0554,2.47759 c 0.0976,4.36165 -0.34779,10.30361 -0.95435,12.73352 -0.98522,3.94655 -3.11991,8.06599 -6.24644,12.05378 -0.8261,1.05371 -1.51083,2.0163 -1.52159,2.1391 -0.0126,0.14537 0.49944,0.21445 1.4675,0.19793 7.15035,-0.12201 13.97924,-5.22732 19.02766,-14.22515 l 1.09213,-1.94652 0.0435,0.94603 c 0.0961,2.08832 -0.75516,13.4135 -1.07143,14.25439 -0.17347,0.46202 -0.27373,0.89016 -0.22203,0.95166 0.18393,0.2192 2.83873,-0.40465 4.44671,-1.04494 0.89949,-0.35815 2.24183,-0.98953 2.98298,-1.40305 0.74118,-0.4135 1.37905,-0.71433 1.41753,-0.66848 0.0385,0.0458 -0.17593,0.85262 -0.47626,1.79288 -0.30057,0.94018 -0.91969,2.91412 -1.37574,4.38652 -0.45603,1.47241 -1.03406,3.22835 -1.28449,3.90209 l -0.45542,1.22496 -39.14918,-3.42509 c -21.53194,-1.88381 -39.14523,-3.46898 -39.14054,-3.52258 z"
   id="path2026"
   inkscape:label="plont" /></svg>
