<?xml version="1.0" encoding="UTF-8" standalone="no"?>
<svg
   width="100%"
   height="100%"
   viewBox="0 0 512 512"
   version="1.1"
   xml:space="preserve"
   style="fill-rule:evenodd;clip-rule:evenodd;stroke-miterlimit:10;"
   id="svg11385"
   sodipodi:docname="dragnmelt_plont.svg"
   inkscape:version="1.2.2 (b0a8486541, 2022-12-01)"
   xmlns:inkscape="http://www.inkscape.org/namespaces/inkscape"
   xmlns:sodipodi="http://sodipodi.sourceforge.net/DTD/sodipodi-0.dtd"
   xmlns="http://www.w3.org/2000/svg"
   xmlns:svg="http://www.w3.org/2000/svg"><sodipodi:namedview
   id="namedview11387"
   pagecolor="#ffffff"
   bordercolor="#000000"
   borderopacity="0.25"
   inkscape:showpageshadow="2"
   inkscape:pageopacity="0.0"
   inkscape:pagecheckerboard="0"
   inkscape:deskcolor="#d1d1d1"
   showgrid="false"
   inkscape:zoom="1.4960938"
   inkscape:cx="256"
   inkscape:cy="258.33943"
   inkscape:window-width="1906"
   inkscape:window-height="920"
   inkscape:window-x="5"
   inkscape:window-y="42"
   inkscape:window-maximized="1"
   inkscape:current-layer="svg11385" />
    <g
   transform="matrix(1,0,0,1,43.3584,504.296)"
   id="g11360">
        <path
   d="M0,-325.053C26.867,-317.349 26.698,-296.129 26.698,-296.129L103.857,-280.54C103.857,-280.54 133.619,-319.532 199.136,-313.977C217.272,-312.439 360.642,-323.796 360.642,-323.796C360.642,-323.796 364.4,-264.064 284.642,-257.796C359.524,-263.68 466.593,-259.963 466.593,-259.963C466.593,-259.963 484.313,-219.931 368.142,-205.238C427.642,-151.296 436.615,-128.942 443.642,-85.296C453.176,-26.072 443.05,-7.296 416.975,7.704L-43.358,7.704C-55.636,7.704 -47.766,-24.389 -43.358,-40.629C12.642,-89.629 272.3,-46.071 205.097,-99.627C159.845,-135.69 8.824,-141.931 -15.05,-165.363C-34.991,-184.933 -40.358,-228.497 -40.358,-228.497L-30.707,-320.84C-30.707,-320.84 -26.867,-332.757 0,-325.053"
   style="fill:rgb(255,186,0);fill-rule:nonzero;"
   id="path11358" />
    </g>
    <g
   transform="matrix(-0.530941,-0.847409,-0.847409,0.530941,26.6225,208.061)"
   id="g11364">
        <path
   d="M-11.278,-20.376C-18.629,-20.376 -24.588,-14.417 -24.588,-7.066C-24.588,0.284 -18.629,6.243 -11.279,6.243C-3.928,6.243 2.031,0.284 2.031,-7.066C2.031,-14.417 -3.928,-20.376 -11.278,-20.376"
   style="fill:rgb(35,31,32);fill-rule:nonzero;"
   id="path11362" />
    </g>
    <g
   transform="matrix(0,73.4786,71.0434,0,208.656,304.505)"
   id="g11368">
        <ellipse
   cx="0"
   cy="0"
   rx="1"
   ry="1"
   style="fill:url(#_Radial1);"
   id="ellipse11366" />
    </g>
    <g
   transform="matrix(0.993956,0.109782,0.109782,-0.993956,6.01594,268.055)"
   id="g11372">
        <path
   d="M-2.148,-8.028L142.393,-8.028C142.393,-8.028 133.817,-33.624 105.027,-40.157C76.238,-46.691 16.328,-47.715 11.18,-42.562C6.031,-37.41 -2.148,-8.028 -2.148,-8.028"
   style="fill:rgb(234,106,46);fill-rule:nonzero;"
   id="path11370" />
    </g>
    <g
   transform="matrix(-0.615772,0.787925,0.787925,0.615772,232.756,266.804)"
   id="g11376">
        <path
   d="M23.633,-58.508C18.512,-55.012 7.212,13.107 8.544,15.344C9.876,17.582 22.229,22.645 23.633,20.665C25.038,18.687 44.556,-62.793 39.494,-64.932C34.428,-67.072 23.633,-58.508 23.633,-58.508Z"
   style="fill:rgb(46,46,46);fill-rule:nonzero;stroke:rgb(34,37,47);stroke-width:4px;"
   id="path11374" />
    </g>
    <defs
   id="defs11383">
        <radialGradient
   id="_Radial1"
   cx="0"
   cy="0"
   r="1"
   gradientUnits="userSpaceOnUse"
   gradientTransform="matrix(0,1,1,0,-9.27473e-06,9.27473e-06)"><stop
     offset="0"
     style="stop-color:rgb(247,135,37);stop-opacity:1"
     id="stop11378" /><stop
     offset="1"
     style="stop-color:rgb(255,186,0);stop-opacity:1"
     id="stop11380" /></radialGradient>
    </defs>
<path
   style="clip-rule:evenodd;fill:#076d14;fill-opacity:0.99689;fill-rule:evenodd;stroke-width:0.219135;stroke-miterlimit:10"
   d="m 197.05707,195.4986 c -0.003,-0.0536 0.31238,-0.73034 0.70189,-1.50363 1.68188,-3.33946 3.0174,-7.52322 3.64242,-11.41041 0.72168,-4.48847 0.79084,-7.17944 0.40154,-15.57819 l -0.36888,-7.9537 1.30342,1.72702 c 4.45175,5.8986 8.10275,14.07339 8.93806,20.01294 l 0.26529,1.88625 1.43898,-1.95641 c 2.0219,-2.74887 3.13556,-4.73155 4.41195,-7.85468 2.65791,-6.5035 3.50692,-12.10449 3.94623,-26.03401 0.10085,-3.19706 0.22051,-6.20331 0.26599,-6.68053 l 0.0827,-0.8677 0.7129,1.41462 c 3.95743,7.8529 7.79281,20.57077 9.11902,30.2381 0.20214,1.4736 0.41494,2.72099 0.47289,2.772 0.29227,0.25727 3.09834,-8.66487 4.14208,-13.17014 4.00288,-17.2784 3.55622,-33.69196 -1.38563,-50.91786 -1.00759,-3.51218 -2.34378,-7.42623 -2.53109,-7.41432 -0.0903,0.006 -0.71464,0.39163 -1.38751,0.85748 -3.95985,2.74169 -11.028,4.76362 -18.26235,5.22418 -5.82238,0.37065 -10.65149,-0.0724 -16.13023,-1.47989 -7.5531,-1.9404 -12.16661,-5.05722 -17.10922,-11.558739 -2.30304,-3.029402 -4.44109,-6.618644 -8.75626,-14.699486 -4.93921,-9.249444 -7.96249,-14.1047 -11.30107,-18.149074 -0.56174,-0.680484 -0.99122,-1.271444 -0.95441,-1.31325 0.0369,-0.0418 1.32502,0.42617 2.86273,1.039956 9.08034,3.624452 15.55746,4.709371 29.60945,4.959606 11.67542,0.207919 15.11837,0.780574 21.74653,3.617052 8.58668,3.674616 13.82345,8.42121 17.40625,15.776967 0.58625,1.203612 1.14433,2.183388 1.24017,2.177284 0.0959,-0.0061 0.13015,-0.703859 0.0762,-1.550555 -0.33573,-5.274133 0.71062,-11.016042 2.97647,-16.333384 5.59216,-13.123307 19.97412,-26.14748 37.10169,-33.598995 1.92105,-0.835768 6.74297,-2.664299 7.08292,-2.685936 0.11062,-0.0071 -0.28961,0.856075 -0.88932,1.918041 -2.28785,4.051176 -4.08516,9.491015 -4.92982,14.920779 -0.52465,3.372592 -0.7248,5.959868 -1.10284,14.255551 -0.51081,11.209124 -1.11135,15.106912 -3.01303,19.556329 -2.18638,5.115498 -8.84462,11.656887 -14.74116,14.482492 -2.7485,1.317072 -4.89705,1.818842 -8.15653,1.904902 -2.44109,0.0644 -3.02378,-6.4e-4 -5.09692,-0.56889 -1.2874,-0.35294 -2.36789,-0.61088 -2.4011,-0.57317 -0.0333,0.0377 0.4354,1.60591 1.04138,3.48483 2.1151,6.55816 3.58808,12.90008 4.55969,19.63166 0.61323,4.24859 1.12257,15.20033 0.89289,19.19792 -0.65132,11.33502 -2.88627,21.96153 -6.87307,32.6794 -0.61361,1.64958 -1.0745,3.03545 -1.02421,3.07973 0.0503,0.0442 0.97364,-0.5731 2.05185,-1.37192 6.38459,-4.73004 9.79651,-9.67658 13.17228,-19.09699 l 0.78437,-2.18888 0.4271,2.44112 c 0.75186,4.29747 1.20447,10.23887 0.96995,12.73234 -0.38098,4.04979 -1.87242,8.44325 -4.36419,12.85556 -0.65839,1.16589 -1.19068,2.22045 -1.18285,2.34347 0.009,0.14562 0.52598,0.13699 1.48057,-0.0248 7.05081,-1.19511 13.035,-7.26862 16.67397,-16.9229 l 0.78724,-2.08855 0.18521,0.92875 c 0.40882,2.05017 1.26905,13.37468 1.08273,14.25354 -0.10207,0.48285 -0.13685,0.92118 -0.0766,0.9742 0.21479,0.18908 2.7457,-0.82663 4.23921,-1.70127 0.83545,-0.48926 2.06767,-1.31518 2.73827,-1.83538 0.67061,-0.52018 1.25603,-0.91344 1.30098,-0.8739 0.0449,0.0394 -0.0458,0.86938 -0.20144,1.84409 -0.15589,0.97468 -0.47136,3.01923 -0.70095,4.54345 -0.2296,1.5242 -0.5372,3.34707 -0.68354,4.0508 l -0.26618,1.27948 -39.21933,2.49675 c -21.57063,1.37321 -39.22212,2.45283 -39.22553,2.39914 z"
   id="path2026"
   inkscape:label="plont" /></svg>
