<?xml version="1.0" encoding="UTF-8" standalone="no"?>
<svg
   width="512.03833"
   height="589.77625"
   viewBox="0 0 512.03833 589.77625"
   version="1.1"
   xml:space="preserve"
   style="clip-rule:evenodd;fill-rule:evenodd;stroke-miterlimit:10"
   id="svg11904"
   sodipodi:docname="dragnowo_plont.svg"
   inkscape:version="1.2.2 (b0a8486541, 2022-12-01)"
   xmlns:inkscape="http://www.inkscape.org/namespaces/inkscape"
   xmlns:sodipodi="http://sodipodi.sourceforge.net/DTD/sodipodi-0.dtd"
   xmlns="http://www.w3.org/2000/svg"
   xmlns:svg="http://www.w3.org/2000/svg"><defs
   id="defs11908" /><sodipodi:namedview
   id="namedview11906"
   pagecolor="#ffffff"
   bordercolor="#000000"
   borderopacity="0.25"
   inkscape:showpageshadow="2"
   inkscape:pageopacity="0.0"
   inkscape:pagecheckerboard="0"
   inkscape:deskcolor="#d1d1d1"
   showgrid="false"
   inkscape:zoom="1.4960938"
   inkscape:cx="256"
   inkscape:cy="287.74935"
   inkscape:window-width="1906"
   inkscape:window-height="920"
   inkscape:window-x="5"
   inkscape:window-y="42"
   inkscape:window-maximized="1"
   inkscape:current-layer="svg11904" />
    <g
   transform="translate(43.106859,543.9048)"
   id="g11882">
        <path
   d="m 0,-376.63 c 26.196,7.325 26.175,28.061 26.175,28.061 l 62.401,-12.146 c 0,0 23.662,-39.547 55.585,-31.524 12.095,0.262 25.275,4.799 90.028,0.895 5.351,-0.322 11.667,1.491 17.119,-0.597 61.776,-23.65 128.309,-53.305 128.309,-53.305 0,0 36.061,52.85 -42.734,101.247 0,1.541 -0.25,-0.29 0.75,1.666 1.882,-0.208 11.231,-2.256 127.325,-40.974 0,0 29.682,73.974 -73.204,107.789 -10.834,4.167 -5.731,12.44 -1.614,21.685 17.272,38.785 13,93 -0.5,151.5 -14.182,61.46 -64.814,131.449 -77.042,142.649 -124.517,28.3 -246.941,-59.75 -223.46,-79.272 31.579,-26.254 72.562,-60.575 89.642,-84.377 15.492,-21.59 32.86,-70.564 11.36,-74.064 -55.855,-9.093 -184.897,13.429 -206.203,-7.263 -19.537,-18.972 -25.054,-61.501 -25.054,-61.501 l 11.264,-106.119 c 0,0 3.657,-11.674 29.853,-4.35"
   style="fill:#ffba00;fill-rule:nonzero"
   id="path11880" />
    </g>
    <g
   transform="matrix(-0.829036,0.559195,0.559195,0.829036,48.467759,197.1898)"
   id="g11886">
        <path
   d="m 6.534,-21.372 c 6.448,0.027 11.676,5.28 11.676,11.733 0,6.454 -5.228,11.663 -11.676,11.637 -6.448,-0.027 -11.676,-5.28 -11.676,-11.733 0,-6.454 5.228,-11.663 11.676,-11.637"
   style="fill:#231f20;fill-rule:nonzero"
   id="path11884" />
    </g>
    <g
   transform="matrix(-0.655273,0.755392,0.755392,0.655273,222.37396,223.1138)"
   id="g11890">
        <path
   d="M 22.091,-41.365 C 39.547,-40.883 51.156,-22.317 50.826,-9.19 50.495,3.938 39.547,13.353 22.091,12.87 4.636,12.387 -13.9,-5.223 -11.585,-21.889 c 1.813,-13.05 12.7,-20.056 33.676,-19.476"
   style="fill:#2f2f2f;fill-rule:nonzero"
   id="path11888" />
    </g>
    <g
   transform="matrix(-0.655273,0.755392,0.755392,0.655273,222.37396,223.1138)"
   id="g11894">
        <path
   d="M 22.091,-41.365 C 39.547,-40.883 51.156,-22.317 50.826,-9.19 50.495,3.938 39.547,13.353 22.091,12.87 4.636,12.387 -13.9,-5.223 -11.585,-21.889 c 1.813,-13.05 12.7,-20.056 33.676,-19.476 z"
   style="fill:none;fill-rule:nonzero;stroke:#1b2031;stroke-width:5px"
   id="path11892" />
    </g>
    <g
   transform="translate(2.2508595,317.9888)"
   id="g11898">
        <path
   d="m 0,-43.055 c 3.257,13.535 10.07,25.521 18.224,36.333 4.887,6.482 12.223,18.572 20.403,10.698 5.984,-5.76 10.513,-13.822 14.996,-20.938 3.848,-6.11 6.244,-12.932 7.57,-13.266 1.325,-0.333 13.351,16.672 23.356,28.689 0.75,0.9 7.14,9.249 12.213,8.418 6.506,-1.065 7.893,-5.106 10.344,-8.092 5.265,-6.411 8.393,-11.041 13.248,-17.823 2.787,-3.893 5.55,-7.811 8.195,-11.821 1.712,-2.594 3.824,-5.432 4.805,-8.494 2.97,-9.269 -10.284,-14.984 -13.254,-5.714 -0.462,1.441 0.342,-0.563 0.211,-0.345 -0.349,0.575 -0.666,1.174 -1.013,1.75 -1.066,1.768 -2.21,3.48 -3.355,5.184 -3.034,4.513 -6.18,8.936 -9.36,13.325 -3.057,4.22 -6.151,8.409 -9.321,12.527 -1.201,1.561 -3.036,1.229 -4.383,-0.276 -3.893,-4.348 -8.262,-9.232 -12.013,-13.724 -5.673,-6.794 -9.734,-13.484 -16.378,-19.635 -2.923,-2.707 -9.122,-1.516 -11.13,1.65 -3.773,5.948 -5.934,11.65 -9.345,17.86 -2.313,4.209 -8.287,15.631 -10.533,15.534 -1.917,-0.083 -4.818,-5.475 -6.926,-8.44 C 21.092,-27.336 16.16,-35.913 13.894,-45.33 11.589,-54.905 -2.324,-52.712 0,-43.055"
   style="fill:#2f2f2f;fill-rule:nonzero"
   id="path11896" />
    </g>
    <g
   transform="translate(2.2508595,317.9888)"
   id="g11902">
        <path
   d="m 0,-43.055 c 3.257,13.535 10.07,25.521 18.224,36.333 4.887,6.482 12.223,18.572 20.403,10.698 5.984,-5.76 10.513,-13.822 14.996,-20.938 3.848,-6.11 6.244,-12.932 7.57,-13.266 1.325,-0.333 13.351,16.672 23.356,28.689 0.75,0.9 7.14,9.249 12.213,8.418 6.506,-1.065 7.893,-5.106 10.344,-8.092 5.265,-6.411 8.393,-11.041 13.248,-17.823 2.787,-3.893 5.55,-7.811 8.195,-11.821 1.712,-2.594 3.824,-5.432 4.805,-8.494 2.97,-9.269 -10.284,-14.984 -13.254,-5.714 -0.462,1.441 0.342,-0.563 0.211,-0.345 -0.349,0.575 -0.666,1.174 -1.013,1.75 -1.066,1.768 -2.21,3.48 -3.355,5.184 -3.034,4.513 -6.18,8.936 -9.36,13.325 -3.057,4.22 -6.151,8.409 -9.321,12.527 -1.201,1.561 -3.036,1.229 -4.383,-0.276 -3.893,-4.348 -8.262,-9.232 -12.013,-13.724 -5.673,-6.794 -9.734,-13.484 -16.378,-19.635 -2.923,-2.707 -9.122,-1.516 -11.13,1.65 -3.773,5.948 -5.934,11.65 -9.345,17.86 -2.313,4.209 -8.287,15.631 -10.533,15.534 -1.917,-0.083 -4.818,-5.475 -6.926,-8.44 C 21.092,-27.336 16.16,-35.913 13.894,-45.33 11.589,-54.905 -2.324,-52.712 0,-43.055 Z"
   style="fill:none;fill-rule:nonzero;stroke:#1b2031;stroke-width:4px"
   id="path11900" />
    </g>
<path
   style="clip-rule:evenodd;fill:#076d14;fill-opacity:0.99689;fill-rule:evenodd;stroke-width:0.219135;stroke-miterlimit:10"
   d="m 206.60968,155.48768 c 3.2e-4,-0.0537 0.35816,-0.70902 0.79602,-1.456 1.89063,-3.22587 3.48926,-7.31633 4.35997,-11.15596 1.00539,-4.43354 1.24538,-7.11468 1.39045,-15.5212 l 0.13719,-7.96106 1.19106,1.80634 c 4.06802,6.16951 7.19227,14.55974 7.64853,20.54035 l 0.14489,1.89932 1.56038,-1.86105 c 2.19244,-2.61486 3.4298,-4.52278 4.90205,-7.55851 3.06572,-6.3215 4.26885,-11.85723 5.59224,-25.7307 0.30377,-3.1842 0.61417,-6.17677 0.6899,-6.65013 l 0.13764,-0.8607 0.62159,1.45706 c 3.45051,8.08845 6.47015,21.02431 7.17949,30.75637 0.1081,1.48345 0.24089,2.74187 0.29585,2.79643 0.27534,0.27533 3.64259,-8.45051 4.97044,-12.88039 5.09252,-16.98916 5.68955,-33.397943 1.85211,-50.903004 -0.78243,-3.569088 -1.86726,-7.560141 -2.05494,-7.560144 -0.0906,-9e-6 -0.7381,0.345425 -1.4392,0.7676 -4.12603,2.484564 -11.30835,4.053362 -18.55734,4.053358 -5.83417,2e-6 -10.62538,-0.748956 -16.00363,-2.501684 -7.41456,-2.416341 -11.82073,-5.819975 -16.34031,-12.622371 -2.10591,-3.1696 -4.01162,-6.887425 -7.80469,-15.226091 -4.34158,-9.544557 -7.05029,-14.582081 -10.12517,-18.830392 -0.51736,-0.714798 -0.90843,-1.33185 -0.86906,-1.371232 0.0395,-0.03937 1.29527,0.50949 2.79088,1.21973 8.83173,4.194025 15.22685,5.68826 29.23456,6.830743 11.6386,0.949265 15.0382,1.7395 21.47277,4.991351 8.3359,4.212723 13.26051,9.282433 16.36875,16.850952 0.5086,1.238426 1.0033,2.251679 1.09935,2.251676 0.0961,-7.2e-5 0.17458,-0.694167 0.17461,-1.542578 1e-5,-5.284808 1.40904,-10.948641 4.00813,-16.111285 C 258.44881,20.662966 273.62918,8.578825 291.19555,2.230516 293.16581,1.518486 298.09417,-6.9965517e-6 298.43482,0 c 0.11084,-6.1996552e-5 -0.34341,0.835946 -1.00941,1.857665 -2.5406,3.89764 -4.67986,9.212302 -5.86778,14.577434 -0.73788,3.332446 -1.10199,5.901779 -2.00631,14.156686 -1.22192,11.154025 -2.06888,15.005786 -4.2494,19.325397 -2.50695,4.966256 -9.56735,11.07142 -15.6315,13.516695 -2.82661,1.139784 -5.0027,1.504039 -8.26106,1.382838 -2.44027,-0.09077 -3.01765,-0.192709 -5.05047,-0.891651 -1.26235,-0.434055 -2.32429,-0.760097 -2.35984,-0.724551 -0.0356,0.03556 0.33251,1.630324 0.81788,3.54395 1.69418,6.679289 2.76125,13.101975 3.30324,19.881685 0.34204,4.278968 0.15461,15.240932 -0.32862,19.215852 -1.37012,11.27076 -4.27568,21.7338 -8.93537,32.17673 -0.71718,1.60726 -1.26516,2.96105 -1.21779,3.00842 0.0473,0.0474 1.00808,-0.51007 2.13487,-1.23877 6.67219,-4.31487 10.39148,-9.03464 14.35893,-18.22155 l 0.92185,-2.13463 0.27113,2.46333 c 0.47727,4.33656 0.55155,10.29472 0.15907,12.76824 -0.6375,4.01741 -2.40504,8.30722 -5.17211,12.55233 -0.73111,1.1217 -1.32934,2.14031 -1.32936,2.26358 1.2e-4,0.14591 0.51623,0.1701 1.47917,0.0693 7.1125,-0.74474 13.47045,-6.4258 17.71545,-15.82938 l 0.91832,-2.03431 0.12579,0.93865 c 0.27774,2.07199 0.41678,13.42827 0.175,14.29353 -0.13255,0.47538 -0.19511,0.91062 -0.13845,0.96735 0.20234,0.20234 2.79266,-0.65052 4.33873,-1.42851 0.86484,-0.43519 2.14705,-1.18116 2.84933,-1.6577 0.70232,-0.47653 1.31155,-0.8318 1.35388,-0.78949 0.0423,0.0423 -0.10104,0.8647 -0.31818,1.82757 -0.2175,0.96281 -0.66222,2.98319 -0.98821,4.48973 -0.32595,1.50655 -0.74874,3.3062 -0.9395,3.9992 l -0.34692,1.25999 -39.29873,1e-5 c -21.6142,0 -39.29863,-0.044 -39.29863,-0.0978 z"
   id="path2026"
   inkscape:label="plont" /></svg>
