<?xml version="1.0" encoding="UTF-8" standalone="no"?>
<svg
   width="500.34222"
   height="528.12738"
   viewBox="0 0 500.34222 528.12738"
   version="1.1"
   xml:space="preserve"
   style="clip-rule:evenodd;fill-rule:evenodd;stroke-miterlimit:10"
   id="svg13614"
   sodipodi:docname="dragnsleep_plont.svg"
   inkscape:version="1.2.2 (b0a8486541, 2022-12-01)"
   xmlns:inkscape="http://www.inkscape.org/namespaces/inkscape"
   xmlns:sodipodi="http://sodipodi.sourceforge.net/DTD/sodipodi-0.dtd"
   xmlns="http://www.w3.org/2000/svg"
   xmlns:svg="http://www.w3.org/2000/svg"
   xmlns:serif="http://www.serif.com/"><sodipodi:namedview
   id="namedview13616"
   pagecolor="#ffffff"
   bordercolor="#000000"
   borderopacity="0.25"
   inkscape:showpageshadow="2"
   inkscape:pageopacity="0.0"
   inkscape:pagecheckerboard="0"
   inkscape:deskcolor="#d1d1d1"
   showgrid="false"
   inkscape:zoom="1.4960938"
   inkscape:cx="247.3107"
   inkscape:cy="175.45692"
   inkscape:window-width="1906"
   inkscape:window-height="920"
   inkscape:window-x="5"
   inkscape:window-y="42"
   inkscape:window-maximized="1"
   inkscape:current-layer="svg13614" />
    <g
   id="Layer-2"
   serif:id="Layer 2"
   transform="translate(-8.4011372,25.42521)">
        <g
   transform="matrix(0.858751,0,0,0.858751,106.048,463.31)"
   id="g13576">
            <path
   d="m 0,-376.63 c 26.196,7.325 26.175,28.061 26.175,28.061 l 62.401,-12.146 c 0,0 23.662,-39.547 55.585,-31.524 12.095,0.262 25.275,4.799 90.028,0.895 5.351,-0.322 11.667,1.491 17.119,-0.597 61.776,-23.65 128.309,-53.305 128.309,-53.305 0,0 36.061,52.85 -42.734,101.247 0,1.541 -0.25,-0.29 0.75,1.666 1.882,-0.208 11.231,-2.256 127.325,-40.974 0,0 29.682,73.974 -73.204,107.789 -10.834,4.167 -5.731,12.44 -1.614,21.685 17.272,38.785 13,93 -0.5,151.5 -14.182,61.46 -64.814,131.449 -77.042,142.649 -124.517,28.3 -246.941,-59.75 -223.46,-79.272 31.579,-26.254 72.562,-60.575 89.642,-84.377 15.492,-21.59 32.86,-70.564 11.36,-74.064 -55.855,-9.093 -184.897,13.429 -206.203,-7.263 -19.537,-18.972 -25.054,-61.501 -25.054,-61.501 l 11.264,-106.119 c 0,0 3.657,-11.674 29.853,-4.35"
   style="fill:#ffba00;fill-rule:nonzero"
   id="path13565" />
            <clipPath
   id="_clip1">
                <path
   d="m 0,-376.63 c 26.196,7.325 26.175,28.061 26.175,28.061 l 62.401,-12.146 c 0,0 23.662,-39.547 55.585,-31.524 12.095,0.262 25.275,4.799 90.028,0.895 5.351,-0.322 11.667,1.491 17.119,-0.597 61.776,-23.65 128.309,-53.305 128.309,-53.305 0,0 36.061,52.85 -42.734,101.247 0,1.541 -0.25,-0.29 0.75,1.666 1.882,-0.208 11.231,-2.256 127.325,-40.974 0,0 29.682,73.974 -73.204,107.789 -10.834,4.167 -5.731,12.44 -1.614,21.685 17.272,38.785 13,93 -0.5,151.5 -14.182,61.46 -64.814,131.449 -77.042,142.649 -124.517,28.3 -246.941,-59.75 -223.46,-79.272 31.579,-26.254 72.562,-60.575 89.642,-84.377 15.492,-21.59 32.86,-70.564 11.36,-74.064 -55.855,-9.093 -184.897,13.429 -206.203,-7.263 -19.537,-18.972 -25.054,-61.501 -25.054,-61.501 l 11.264,-106.119 c 0,0 3.657,-11.674 29.853,-4.35"
   clip-rule="nonzero"
   id="path13567" />
            </clipPath>
            <g
   clip-path="url(#_clip1)"
   id="g13574">
                <g
   transform="matrix(0,73.4786,71.0434,0,207.329,-250.796)"
   id="g13572">
                    <circle
   cx="0"
   cy="0"
   style="fill:url(#_Radial2)"
   id="ellipse13570"
   r="1" />
                </g>
            </g>
        </g>
        <g
   transform="matrix(-0.711935,0.480209,0.480209,0.711935,110.651,165.569)"
   id="g13580">
            <path
   d="m 6.534,-21.372 c 6.448,0.027 11.676,5.28 11.676,11.733 0,6.454 -5.228,11.663 -11.676,11.637 -6.448,-0.027 -11.676,-5.28 -11.676,-11.733 0,-6.454 5.228,-11.663 11.676,-11.637"
   style="fill:#231f20;fill-rule:nonzero"
   id="path13578" />
        </g>
        <g
   transform="matrix(-0.208278,0.833111,0.833111,0.208278,263.664,200.04)"
   id="g13584">
            <path
   d="m 13.585,-46.974 c 2.847,-7.265 29.351,8.066 28.987,21.192 C 41.962,-3.802 19.568,14.307 13.585,2.503 10.247,-4.082 36.309,-9.538 30.832,-25.447 26.543,-37.905 8.936,-35.112 13.585,-46.974"
   style="fill:#2f2f2f;fill-rule:nonzero"
   id="path13582" />
        </g>
        <g
   transform="matrix(-0.208278,0.833111,0.833111,0.208278,263.664,200.04)"
   id="g13588">
            <path
   d="m 13.585,-46.974 c 2.847,-7.265 29.351,8.066 28.987,21.192 C 41.962,-3.802 19.568,14.307 13.585,2.503 10.247,-4.082 36.309,-9.538 30.832,-25.447 26.543,-37.905 8.936,-35.112 13.585,-46.974 Z"
   style="fill:none;fill-rule:nonzero;stroke:#1b2031;stroke-width:5.82px"
   id="path13586" />
        </g>
        <g
   transform="matrix(1.32752,0,0,1.32752,-902.599,-124.262)"
   id="g13592">
            <path
   d="m 732.773,292.626 c -0.764,-15.864 24.142,-30.954 54.054,-30.18 30.792,0.797 45.371,10.902 45.946,29.73 0.202,6.64 -33.403,-1.812 -48.981,-0.812 -20.511,1.318 -50.669,8.533 -51.019,1.262 z"
   style="fill:#ed6c30"
   id="path13590" />
        </g>
        <g
   transform="translate(-60.8952,29.7184)"
   id="g13596">
            <circle
   cx="102.438"
   cy="153.291"
   r="23.874001"
   style="fill:none;stroke:#916de0;stroke-width:15.15px;stroke-linecap:round;stroke-linejoin:round;stroke-miterlimit:1.5"
   id="circle13594" />
        </g>
        <g
   transform="translate(42.3018,-114.162)"
   id="g13600">
            <circle
   cx="102.438"
   cy="153.291"
   r="23.874001"
   style="fill:none;stroke:#916de0;stroke-width:15.15px;stroke-linecap:round;stroke-linejoin:round;stroke-miterlimit:1.5;stroke-dasharray:0, 30.3, 0, 0"
   id="circle13598" />
        </g>
        <g
   transform="matrix(1.55024,0,0,1.55024,-105.819,-153.485)"
   id="g13604">
            <circle
   cx="102.438"
   cy="153.291"
   r="23.874001"
   style="fill:none;stroke:#916de0;stroke-width:9.77px;stroke-linecap:round;stroke-linejoin:round;stroke-miterlimit:1.5"
   id="circle13602" />
        </g>
    </g>
    <defs
   id="defs13612">
        <radialGradient
   id="_Radial2"
   cx="0"
   cy="0"
   r="1"
   gradientUnits="userSpaceOnUse"
   gradientTransform="matrix(0,1,1,0,-8.49688e-6,8.49688e-6)"><stop
     offset="0"
     style="stop-color:rgb(247,148,29);stop-opacity:1"
     id="stop13607" /><stop
     offset="1"
     style="stop-color:rgb(255,186,0);stop-opacity:1"
     id="stop13609" /></radialGradient>
    </defs>
<path
   style="clip-rule:evenodd;fill:#076d14;fill-opacity:0.99689;fill-rule:evenodd;stroke-width:0.219135;stroke-miterlimit:10"
   d="m 226.02946,155.48769 c 3.1e-4,-0.0537 0.35816,-0.70903 0.79602,-1.456 1.89064,-3.22587 3.48926,-7.31634 4.35997,-11.15596 1.0054,-4.43354 1.24537,-7.11469 1.39045,-15.52122 l 0.13719,-7.96105 1.19105,1.80634 c 4.06802,6.16951 7.19228,14.55974 7.64854,20.54036 l 0.14489,1.89931 1.56036,-1.86104 c 2.19245,-2.61487 3.42981,-4.52278 4.90206,-7.5585 3.06571,-6.32152 4.26885,-11.85724 5.59224,-25.73072 0.30378,-3.18419 0.61418,-6.17677 0.6899,-6.65013 l 0.13764,-0.86069 0.62159,1.45705 c 3.45051,8.08845 6.47015,21.02431 7.17949,30.75638 0.1081,1.48344 0.24089,2.74188 0.29585,2.79643 0.27533,0.27532 3.64258,-8.45052 4.97043,-12.8804 5.09253,-16.98916 5.68956,-33.397944 1.85211,-50.903001 -0.78242,-3.56909 -1.86724,-7.560142 -2.05494,-7.560142 -0.0904,-1.7e-5 -0.73809,0.345421 -1.43918,0.767596 -4.12604,2.484565 -11.30836,4.053358 -18.55736,4.053359 -5.83417,-3e-6 -10.62537,-0.74896 -16.00362,-2.501683 -7.41455,-2.416345 -11.82074,-5.819974 -16.3403,-12.622371 -2.10592,-3.169605 -4.01164,-6.887429 -7.80469,-15.226099 -4.3416,-9.544549 -7.05029,-14.582073 -10.12518,-18.830387 -0.51737,-0.714797 -0.90843,-1.331849 -0.86908,-1.371233 0.0395,-0.03937 1.2953,0.509491 2.7909,1.219731 8.83173,4.194025 15.22685,5.688258 29.23455,6.830743 11.63862,0.949261 15.03822,1.7395 21.47278,4.991351 8.33589,4.212723 13.26052,9.282433 16.36875,16.850955 0.50861,1.238425 1.00329,2.251678 1.09935,2.251675 0.096,-7.3e-5 0.17458,-0.694173 0.17461,-1.542577 0,-5.284812 1.40904,-10.948643 4.00814,-16.111289 C 277.86858,20.662966 293.04894,8.578824 310.61533,2.230516 312.58559,1.518484 317.51394,-5.996662e-6 317.85458,0 c 0.11085,-6.0996662e-5 -0.34341,0.835947 -1.00939,1.857665 -2.54061,3.897641 -4.67988,9.212302 -5.86779,14.577435 -0.73788,3.332445 -1.10198,5.901778 -2.0063,14.156684 -1.22193,11.154026 -2.06889,15.005787 -4.2494,19.325397 -2.50696,4.966262 -9.56735,11.071418 -15.63151,13.516701 -2.82662,1.139775 -5.0027,1.504034 -8.26105,1.382828 -2.44028,-0.09076 -3.01766,-0.192697 -5.05047,-0.891651 -1.26238,-0.434016 -2.3243,-0.760093 -2.35984,-0.724561 -0.0356,0.03559 0.3325,1.630328 0.81788,3.543951 1.69417,6.679296 2.76127,13.101975 3.30323,19.881693 0.34204,4.278968 0.1546,15.240938 -0.32862,19.215858 -1.37011,11.27075 -4.27567,21.7338 -8.93536,32.17672 -0.71718,1.60726 -1.26518,2.96106 -1.21781,3.00843 0.0475,0.0473 1.00808,-0.51008 2.13488,-1.23879 6.67221,-4.31484 10.39147,-9.03463 14.35894,-18.22154 l 0.92184,-2.13463 0.27112,2.46333 c 0.47738,4.33655 0.55157,10.29472 0.1591,12.76824 -0.63752,4.0174 -2.40505,8.30723 -5.17213,12.55233 -0.73112,1.1217 -1.32935,2.14031 -1.32935,2.26358 1.2e-4,0.14592 0.51621,0.17013 1.47916,0.0693 7.1125,-0.74474 13.47045,-6.4258 17.71545,-15.82939 l 0.91832,-2.0343 0.12589,0.93864 c 0.27774,2.07199 0.41675,13.42827 0.17498,14.29352 -0.13255,0.4754 -0.19501,0.91067 -0.13825,0.9674 0.20234,0.20233 2.79266,-0.65053 4.33872,-1.42852 0.86485,-0.43519 2.14707,-1.18116 2.84934,-1.6577 0.70233,-0.47652 1.31155,-0.83181 1.35389,-0.78948 0.0423,0.0422 -0.10096,0.86471 -0.3182,1.82757 -0.21748,0.9628 -0.66221,2.98317 -0.98819,4.48974 -0.32597,1.50653 -0.74876,3.30618 -0.93951,3.99918 l -0.34693,1.25999 -39.29872,2e-5 c -21.61428,-1e-5 -39.29871,-0.0441 -39.29871,-0.0978 z"
   id="path2026"
   inkscape:label="plont" /></svg>
