<?xml version="1.0" encoding="UTF-8" standalone="no"?>
<svg
   width="512"
   height="567.65173"
   viewBox="0 0 512 567.65173"
   version="1.1"
   xml:space="preserve"
   style="clip-rule:evenodd;fill-rule:evenodd;stroke-miterlimit:10"
   id="svg14314"
   sodipodi:docname="dragneyes_plont.svg"
   inkscape:version="1.2.2 (b0a8486541, 2022-12-01)"
   xmlns:inkscape="http://www.inkscape.org/namespaces/inkscape"
   xmlns:sodipodi="http://sodipodi.sourceforge.net/DTD/sodipodi-0.dtd"
   xmlns="http://www.w3.org/2000/svg"
   xmlns:svg="http://www.w3.org/2000/svg"
   xmlns:serif="http://www.serif.com/"><defs
   id="defs14318" /><sodipodi:namedview
   id="namedview14316"
   pagecolor="#ffffff"
   bordercolor="#000000"
   borderopacity="0.25"
   inkscape:showpageshadow="2"
   inkscape:pageopacity="0.0"
   inkscape:pagecheckerboard="0"
   inkscape:deskcolor="#d1d1d1"
   showgrid="false"
   inkscape:zoom="1.4960938"
   inkscape:cx="256"
   inkscape:cy="204.86684"
   inkscape:window-width="1906"
   inkscape:window-height="920"
   inkscape:window-x="5"
   inkscape:window-y="42"
   inkscape:window-maximized="1"
   inkscape:current-layer="svg14314" />
    <rect
   id="Artboard1"
   x="0"
   y="55.651711"
   width="512"
   height="512"
   style="fill:none" />
    <g
   id="Artboard11"
   serif:id="Artboard1"
   transform="translate(0,55.651712)">
        <g
   id="Layer-2"
   serif:id="Layer 2">
            <g
   transform="translate(42.8599,460.333)"
   id="g14290">
                <path
   d="m -1.196,-361.077 c 26.196,7.325 26.175,28.061 26.175,28.061 l 62.401,-12.146 c 0,0 23.662,-39.547 55.585,-31.524 12.095,0.262 25.275,4.799 90.028,0.895 5.351,-0.322 10.076,-1.929 14.855,-5.282 29.944,-21.013 43.687,-76.786 43.687,-76.786 0,0 53.702,13.649 50.262,77.974 0.556,1.437 -14.527,30.423 -12.889,31.886 1.681,-0.872 17.438,26.745 98.59,-59.02 0,0 61.545,67.26 -22.216,135.911 -8.602,7.795 -20.455,23.583 -16.338,32.828 17.272,38.785 14.196,77.447 0.696,135.947 -14.182,61.46 -64.814,131.449 -77.042,142.649 -124.517,28.3 -246.941,-59.75 -223.46,-79.272 31.579,-26.254 72.562,-60.575 89.642,-84.377 15.492,-21.59 31.664,-55.011 10.164,-58.511 -55.855,-9.093 -177.623,-4.947 -198.929,-25.639 -19.537,-18.972 -32.328,-43.125 -32.328,-43.125 l 11.264,-106.119 c 0,0 3.657,-11.674 29.853,-4.35"
   style="fill:#ffba00;fill-rule:nonzero"
   id="path14288" />
            </g>
            <g
   transform="matrix(-0.829036,0.559195,0.559195,0.829036,45.2299,128.573)"
   id="g14294">
                <path
   d="m 6.534,-21.372 c 6.448,0.027 11.676,5.28 11.676,11.733 0,6.454 -5.228,11.663 -11.676,11.637 -6.448,-0.027 -11.676,-5.28 -11.676,-11.733 0,-6.454 5.228,-11.663 11.676,-11.637"
   style="fill:#231f20;fill-rule:nonzero"
   id="path14292" />
            </g>
            <g
   transform="matrix(1.04422,0,0,1.04422,-9.5642,5.61268)"
   id="g14298">
                <ellipse
   cx="199.97501"
   cy="152.99699"
   rx="51.317001"
   ry="58.275002"
   style="fill:#e1e8ed"
   id="ellipse14296" />
            </g>
            <g
   transform="matrix(-0.0730975,1.06162,0.449191,0.0309288,178.409,162.964)"
   id="g14302">
                <path
   d="M 22.091,-41.365 C 39.547,-40.883 51.156,-22.317 50.826,-9.19 50.495,3.938 39.547,13.353 22.091,12.87 4.636,12.387 -13.9,-5.223 -11.585,-21.889 c 1.813,-13.05 12.7,-20.056 33.676,-19.476 z"
   style="fill:#292f33;fill-rule:nonzero;stroke:#1b2031;stroke-width:6.12px"
   id="path14300" />
            </g>
            <g
   transform="matrix(0.654673,0,0,0.654673,-15.7822,15.1558)"
   id="g14306">
                <ellipse
   cx="199.97501"
   cy="152.99699"
   rx="51.317001"
   ry="58.275002"
   style="fill:#e1e8ed"
   id="ellipse14304" />
            </g>
            <g
   transform="matrix(-0.0725646,0.717973,0.336191,0.0339783,109.372,112.439)"
   id="g14310">
                <path
   d="M 22.091,-41.365 C 39.547,-40.883 51.156,-22.317 50.826,-9.19 50.495,3.938 39.547,13.353 22.091,12.87 4.636,12.387 -13.9,-5.223 -11.585,-21.889 c 1.813,-13.05 12.7,-20.056 33.676,-19.476 z"
   style="fill:#292f33;fill-rule:nonzero;stroke:#1b2031;stroke-width:8.87px"
   id="path14308" />
            </g>
        </g>
    </g>
<path
   style="clip-rule:evenodd;fill:#076d14;fill-opacity:0.99689;fill-rule:evenodd;stroke-width:0.201663;stroke-linecap:round;stroke-linejoin:round;stroke-miterlimit:10"
   d="m 200.48196,143.09059 c -9e-5,-0.0497 0.32963,-0.6525 0.73233,-1.34004 1.73993,-2.96866 3.21112,-6.73297 4.01238,-10.26646 0.92507,-4.08011 1.14556,-6.54752 1.27954,-14.28369 l 0.12626,-7.32632 1.0961,1.66232 c 3.74367,5.67762 6.61881,13.39887 7.0387,18.90264 l 0.13331,1.74787 1.43595,-1.71267 c 2.01765,-2.40636 3.15647,-4.16209 4.51122,-6.95586 2.82119,-5.81751 3.92844,-10.91184 5.14639,-23.679142 0.27939,-2.93034 0.56521,-5.684292 0.63495,-6.119903 l 0.12627,-0.79214 0.57204,1.340888 c 3.17535,7.443517 5.95428,19.348007 6.60702,28.304107 0.0996,1.36517 0.22203,2.52323 0.27227,2.57346 0.25335,0.25342 3.35215,-7.77674 4.57413,-11.8534 4.68649,-15.634603 5.23595,-30.735082 1.70443,-46.844443 -0.72003,-3.284517 -1.7184,-6.957369 -1.89107,-6.957353 -0.0833,2e-6 -0.67925,0.31787 -1.32445,0.706388 -3.79706,2.286466 -10.40675,3.730179 -17.07776,3.730177 -5.36898,5e-6 -9.77817,-0.689227 -14.7276,-2.302211 -6.82339,-2.223682 -10.87827,-5.355957 -15.03745,-11.615968 -1.93805,-2.916887 -3.69184,-6.338301 -7.18246,-14.01211 -3.99543,-8.783552 -6.48814,-13.419414 -9.31788,-17.329011 -0.4761,-0.657803 -0.83594,-1.225642 -0.79974,-1.261889 0.0366,-0.03616 1.19197,0.46886 2.56834,1.122469 8.12756,3.85963 14.01281,5.234728 26.90363,6.286117 10.71067,0.873577 13.83919,1.600814 19.76071,4.593375 7.6713,3.87686 12.20327,8.542344 15.06369,15.507419 0.46806,1.139686 0.92329,2.072149 1.01168,2.072149 0.0886,-2e-6 0.15997,-0.639026 0.16085,-1.41956 0,-4.86345 1.29669,-10.075702 3.68857,-14.826713 5.90316,-11.725613 19.87313,-22.84628 36.03897,-28.68841 C 280.13644,1.397412 284.67183,-7.9872102e-6 284.98533,0 c 0.10202,-8.0987211e-5 -0.31599,0.76927002 -0.92876,1.709641 -2.33804,3.586871 -4.30681,8.477764 -5.39998,13.415139 -0.67883,3.066791 -1.01408,5.431228 -1.84634,13.02795 -1.12447,10.264714 -1.90394,13.809347 -3.91059,17.784555 -2.30715,4.570245 -8.8045,10.188677 -14.38515,12.438996 -2.60125,1.048894 -4.60383,1.384113 -7.60241,1.272575 -2.24565,-0.08354 -2.77706,-0.177364 -4.64779,-0.820581 -1.16172,-0.399397 -2.13893,-0.699487 -2.17168,-0.666784 -0.0348,0.03162 0.30599,1.500336 0.75267,3.261374 1.55911,6.146757 2.54113,12.057345 3.0399,18.296511 0.31478,3.937781 0.14235,14.025741 -0.30241,17.683734 -1.26092,10.37212 -3.93481,20.00093 -8.22294,29.61124 -0.66005,1.47907 -1.1644,2.72491 -1.12073,2.76854 0.0438,0.0438 0.92772,-0.46941 1.96465,-1.14001 6.14018,-3.97085 9.56294,-8.31429 13.21409,-16.76872 l 0.84824,-1.9645 0.2495,2.26694 c 0.43926,3.99079 0.50759,9.47391 0.14632,11.75021 -0.58656,3.69711 -2.21339,7.64485 -4.75973,11.55152 -0.67273,1.03232 -1.22342,1.96961 -1.22313,2.08324 -6.9e-4,0.13424 0.47511,0.1565 1.36127,0.0637 6.54539,-0.68536 12.39639,-5.91346 16.30292,-14.56729 l 0.84529,-1.87203 0.11569,0.8638 c 0.25557,1.90678 0.38353,12.35761 0.16108,13.15388 -0.12186,0.43751 -0.17937,0.83809 -0.12715,0.89026 0.18642,0.1862 2.57001,-0.59865 3.99279,-1.31461 0.7959,-0.4005 1.97586,-1.087 2.62214,-1.52555 0.64633,-0.43852 1.207,-0.76546 1.24596,-0.72652 0.0388,0.0388 -0.093,0.79572 -0.29422,1.68158 -0.20008,0.88609 -0.60937,2.74534 -0.90932,4.13179 -0.30003,1.38643 -0.68909,3.04257 -0.86465,3.68034 l -0.31976,1.15939 h -36.16537 c -19.89096,-1e-5 -36.16538,-0.0405 -36.1654,-0.09 z"
   id="path2026"
   inkscape:label="plont" /></svg>
