<?xml version="1.0" encoding="UTF-8" standalone="no"?>
<svg
   width="512.00006"
   height="596.24689"
   viewBox="0 0 512.00006 596.24689"
   version="1.1"
   xml:space="preserve"
   style="clip-rule:evenodd;fill-rule:evenodd;stroke-linejoin:round;stroke-miterlimit:1.41421"
   id="svg10485"
   sodipodi:docname="dragnflushed_plont.svg"
   inkscape:version="1.2.2 (b0a8486541, 2022-12-01)"
   xmlns:inkscape="http://www.inkscape.org/namespaces/inkscape"
   xmlns:sodipodi="http://sodipodi.sourceforge.net/DTD/sodipodi-0.dtd"
   xmlns="http://www.w3.org/2000/svg"
   xmlns:svg="http://www.w3.org/2000/svg"
   xmlns:serif="http://www.serif.com/"><sodipodi:namedview
   id="namedview10487"
   pagecolor="#ffffff"
   bordercolor="#000000"
   borderopacity="0.25"
   inkscape:showpageshadow="2"
   inkscape:pageopacity="0.0"
   inkscape:pagecheckerboard="0"
   inkscape:deskcolor="#d1d1d1"
   showgrid="false"
   inkscape:zoom="1.4960938"
   inkscape:cx="255.6658"
   inkscape:cy="127.33159"
   inkscape:window-width="949"
   inkscape:window-height="920"
   inkscape:window-x="962"
   inkscape:window-y="24"
   inkscape:window-maximized="1"
   inkscape:current-layer="svg10485" />
    <rect
   id="Artboard1"
   x="0"
   y="84.246887"
   width="512"
   height="512"
   style="fill:none" />
    <g
   id="Artboard11"
   serif:id="Artboard1"
   transform="translate(0,84.246887)">
        <g
   id="Layer-2"
   serif:id="Layer 2">
            <g
   transform="rotate(-1.8989003,14091.295,-1431.9857)"
   id="g10458">
                <path
   d="m 0,-376.63 c 26.196,7.325 26.175,28.061 26.175,28.061 l 62.401,-12.146 c 0,0 23.662,-39.547 55.585,-31.524 12.095,0.262 25.275,4.799 90.028,0.895 5.351,-0.322 11.667,1.491 17.119,-0.597 61.776,-23.65 128.309,-53.305 128.309,-53.305 0,0 36.061,52.85 -42.734,101.247 0,1.541 -0.25,-0.29 0.75,1.666 1.882,-0.208 11.231,-2.256 127.325,-40.974 0,0 29.682,73.974 -73.204,107.789 -10.834,4.167 -5.731,12.44 -1.614,21.685 17.272,38.785 13,93 -0.5,151.5 -14.182,61.46 -64.814,131.449 -77.042,142.649 -124.517,28.3 -246.941,-59.75 -223.46,-79.272 31.579,-26.254 72.562,-60.575 89.642,-84.377 15.492,-21.59 32.86,-70.564 11.36,-74.064 -55.855,-9.093 -184.897,13.429 -206.203,-7.263 -19.537,-18.972 -25.054,-61.501 -25.054,-61.501 l 11.264,-106.119 c 0,0 3.657,-11.674 29.853,-4.35"
   style="fill:#ffba00;fill-rule:nonzero"
   id="path10447" />
                <clipPath
   id="_clip1">
                    <path
   d="m 0,-376.63 c 26.196,7.325 26.175,28.061 26.175,28.061 l 62.401,-12.146 c 0,0 23.662,-39.547 55.585,-31.524 12.095,0.262 25.275,4.799 90.028,0.895 5.351,-0.322 11.667,1.491 17.119,-0.597 61.776,-23.65 128.309,-53.305 128.309,-53.305 0,0 36.061,52.85 -42.734,101.247 0,1.541 -0.25,-0.29 0.75,1.666 1.882,-0.208 11.231,-2.256 127.325,-40.974 0,0 29.682,73.974 -73.204,107.789 -10.834,4.167 -5.731,12.44 -1.614,21.685 17.272,38.785 13,93 -0.5,151.5 -14.182,61.46 -64.814,131.449 -77.042,142.649 -124.517,28.3 -246.941,-59.75 -223.46,-79.272 31.579,-26.254 72.562,-60.575 89.642,-84.377 15.492,-21.59 32.86,-70.564 11.36,-74.064 -55.855,-9.093 -184.897,13.429 -206.203,-7.263 -19.537,-18.972 -25.054,-61.501 -25.054,-61.501 l 11.264,-106.119 c 0,0 3.657,-11.674 29.853,-4.35"
   clip-rule="nonzero"
   id="path10449" />
                </clipPath>
                <g
   clip-path="url(#_clip1)"
   id="g10456">
                    <g
   transform="matrix(0,91.4233,88.3934,0,166.289,-253.005)"
   id="g10454">
                        <circle
   cx="0"
   cy="0"
   style="fill:url(#_Radial2)"
   id="ellipse10452"
   r="1" />
                    </g>
                </g>
            </g>
            <g
   transform="matrix(-0.810051,0.586359,0.586359,0.810051,49.0557,119.442)"
   id="g10462">
                <path
   d="m 6.534,-21.372 c 6.448,0.027 11.676,5.28 11.676,11.733 0,6.454 -5.228,11.663 -11.676,11.637 -6.448,-0.027 -11.676,-5.28 -11.676,-11.733 0,-6.454 5.228,-11.663 11.676,-11.637"
   style="fill:#231f20;fill-rule:nonzero"
   id="path10460" />
            </g>
            <g
   transform="matrix(0.422607,0.360296,-0.449529,0.527273,128.431,-53.4883)"
   id="g10466">
                <path
   d="m 227.647,360.473 c 32.064,-24.487 41.418,-34.854 49.756,-27.446 8.893,7.901 -4.988,16.09 -37.994,41.74 -31.283,24.312 -40.91,34.755 -50.287,25.881 -8.575,-8.114 1.485,-11.888 38.525,-40.175 z"
   style="fill:#2f2f2f;fill-rule:nonzero;stroke:#1b2031;stroke-width:8.54px"
   id="path10464" />
            </g>
        </g>
        <g
   transform="matrix(0.775722,-0.0257185,0.0257185,0.775722,38.8196,34.163)"
   id="g10471">
            <ellipse
   cx="199.97501"
   cy="152.99699"
   rx="51.317001"
   ry="58.275002"
   style="fill:#e1e8ed"
   id="ellipse10469" />
        </g>
        <g
   transform="matrix(-0.0274043,0.769374,0.325536,0.0115953,197.619,140.13)"
   id="g10475">
            <path
   d="M 22.091,-41.365 C 39.547,-40.883 51.156,-22.317 50.826,-9.19 50.495,3.938 39.547,13.353 22.091,12.87 4.636,12.387 -13.9,-5.223 -11.585,-21.889 c 1.813,-13.05 12.7,-20.056 33.676,-19.476 z"
   style="fill:#292f33;fill-rule:nonzero;stroke:#1b2031;stroke-width:8.46px;stroke-linejoin:miter;stroke-miterlimit:10"
   id="path10473" />
        </g>
    </g>
    <defs
   id="defs10483">
        <radialGradient
   id="_Radial2"
   cx="0"
   cy="0"
   r="1"
   gradientUnits="userSpaceOnUse"
   gradientTransform="matrix(0,1,1,0,-8.49688e-6,8.49688e-6)"><stop
     offset="0"
     style="stop-color:rgb(247,110,29);stop-opacity:1"
     id="stop10478" /><stop
     offset="1"
     style="stop-color:rgb(255,186,0);stop-opacity:1"
     id="stop10480" /></radialGradient>
    </defs>
<path
   style="clip-rule:evenodd;fill:#076d14;fill-opacity:0.99689;fill-rule:evenodd;stroke-width:0.219135;stroke-miterlimit:10"
   d="m 193.68648,155.48768 c 3.2e-4,-0.0537 0.35816,-0.70902 0.79602,-1.45601 1.89064,-3.22586 3.48926,-7.31632 4.35997,-11.15594 1.00539,-4.43355 1.24537,-7.11469 1.39045,-15.5212 l 0.13719,-7.96107 1.19106,1.80634 c 4.06801,6.16951 7.19226,14.55974 7.64853,20.54036 l 0.14489,1.89931 1.56036,-1.86104 c 2.19245,-2.61487 3.42981,-4.52278 4.90206,-7.55852 3.06572,-6.32149 4.26885,-11.85722 5.59224,-25.7307 0.30378,-3.18419 0.61417,-6.17677 0.6899,-6.65013 l 0.13764,-0.86069 0.62159,1.45705 c 3.45051,8.08845 6.47015,21.02431 7.17949,30.75637 0.1081,1.48345 0.24089,2.74188 0.29585,2.79643 0.27534,0.27533 3.64258,-8.45051 4.97044,-12.88038 5.09252,-16.98917 5.68955,-33.397955 1.8521,-50.903016 -0.78242,-3.569089 -1.86725,-7.560142 -2.05494,-7.560145 -0.0904,2.2e-5 -0.73809,0.345425 -1.43918,0.767599 -4.12604,2.484565 -11.30836,4.053364 -18.55735,4.053359 -5.83418,3e-6 -10.62538,-0.748956 -16.00363,-2.501683 -7.41455,-2.416342 -11.82074,-5.819976 -16.34031,-12.622371 -2.10591,-3.169601 -4.01163,-6.887424 -7.80468,-15.22609 -4.34159,-9.544558 -7.05029,-14.582082 -10.12518,-18.830393 -0.51737,-0.714796 -0.90843,-1.331849 -0.86907,-1.371232 0.0395,-0.03938 1.29528,0.509492 2.79089,1.21973 8.83173,4.194025 15.22685,5.68826 29.23456,6.830743 11.63861,0.949264 15.03821,1.739499 21.47277,4.991351 8.33589,4.212723 13.26051,9.282433 16.36875,16.850952 0.50861,1.238427 1.0033,2.25168 1.09935,2.251677 0.0961,-7.2e-5 0.17458,-0.694167 0.17461,-1.542578 1e-5,-5.284808 1.40904,-10.94864 4.00814,-16.111287 C 245.5256,20.662964 260.70597,8.578823 278.27235,2.230513 280.24261,1.518483 285.17096,-8.996662e-6 285.5116,0 c 0.11085,-6.0996662e-5 -0.34341,0.835944 -1.0094,1.857665 -2.54059,3.897639 -4.67986,9.212301 -5.86778,14.577433 -0.73788,3.332446 -1.10198,5.901778 -2.00631,14.156685 -1.22192,11.154025 -2.06888,15.005787 -4.24939,19.325396 -2.50696,4.966258 -9.56736,11.071422 -15.63151,13.516696 -2.82661,1.139783 -5.0027,1.504038 -8.26106,1.382837 -2.44026,-0.09077 -3.01765,-0.192709 -5.05046,-0.891651 -1.26237,-0.434055 -2.32429,-0.760095 -2.35985,-0.724551 -0.0356,0.03556 0.33251,1.630324 0.81789,3.543949 1.69417,6.679291 2.76125,13.101976 3.30323,19.881687 0.34204,4.278968 0.1546,15.240944 -0.32862,19.215864 -1.37012,11.27075 -4.27567,21.7338 -8.93537,32.17673 -0.71718,1.60725 -1.26517,2.96104 -1.2178,3.00842 0.0473,0.0474 1.00808,-0.51007 2.13488,-1.23878 6.67219,-4.31486 10.39147,-9.03463 14.35893,-18.22155 l 0.92185,-2.13463 0.27113,2.46333 c 0.47727,4.33656 0.55155,10.29472 0.15908,12.76824 -0.63751,4.01741 -2.40504,8.30722 -5.17212,12.55233 -0.73112,1.1217 -1.32934,2.14031 -1.32936,2.26358 1.2e-4,0.14591 0.51623,0.17011 1.47916,0.0693 7.11251,-0.74474 13.47046,-6.42579 17.71546,-15.82938 l 0.91832,-2.0343 0.12579,0.93864 c 0.27774,2.072 0.41677,13.42827 0.17499,14.29353 -0.13255,0.47538 -0.195,0.91065 -0.13825,0.96738 0.20234,0.20234 2.79266,-0.65052 4.33872,-1.42851 0.86485,-0.43519 2.14705,-1.18116 2.84934,-1.6577 0.70232,-0.47653 1.31155,-0.83181 1.35388,-0.78949 0.0423,0.0423 -0.10095,0.86472 -0.31819,1.82757 -0.21748,0.96281 -0.66221,2.98319 -0.9882,4.48973 -0.32596,1.50655 -0.74875,3.3062 -0.93951,3.9992 l -0.34692,1.25999 -39.29872,1e-5 c -21.61428,0 -39.29871,-0.044 -39.29871,-0.0978 z"
   id="path2026"
   inkscape:label="plont" /></svg>
