<?xml version="1.0" encoding="UTF-8" standalone="no"?>
<svg
   width="479.01425"
   height="587.11951"
   viewBox="0 0 479.01425 587.11951"
   version="1.1"
   xml:space="preserve"
   style="clip-rule:evenodd;fill-rule:evenodd;stroke-miterlimit:10"
   id="svg1652"
   sodipodi:docname="dragnmlem_plont.svg"
   inkscape:version="1.2.2 (b0a8486541, 2022-12-01)"
   xmlns:inkscape="http://www.inkscape.org/namespaces/inkscape"
   xmlns:sodipodi="http://sodipodi.sourceforge.net/DTD/sodipodi-0.dtd"
   xmlns="http://www.w3.org/2000/svg"
   xmlns:svg="http://www.w3.org/2000/svg"
   xmlns:serif="http://www.serif.com/"><defs
   id="defs1656" /><sodipodi:namedview
   id="namedview1654"
   pagecolor="#ffffff"
   bordercolor="#000000"
   borderopacity="0.25"
   inkscape:showpageshadow="2"
   inkscape:pageopacity="0.0"
   inkscape:pagecheckerboard="0"
   inkscape:deskcolor="#d1d1d1"
   showgrid="false"
   inkscape:zoom="0.74804688"
   inkscape:cx="217.90078"
   inkscape:cy="313.48303"
   inkscape:window-width="949"
   inkscape:window-height="920"
   inkscape:window-x="5"
   inkscape:window-y="24"
   inkscape:window-maximized="1"
   inkscape:current-layer="svg1652" />
    <g
   id="Layer-2"
   serif:id="Layer 2"
   transform="translate(-15.660241,74.949605)">
        <g
   transform="matrix(1.03956,-0.0200457,0.0192793,0.999814,14.1034,471.604)"
   id="g1621">
            <path
   d="m 62.132,-374.475 c 26.196,7.325 22.584,26.265 22.584,26.265 l 52.345,-7.836 c 0,0 1.306,-22.691 34.118,-20.024 8.733,-2.651 7.472,-2.829 40.187,-11.183 5.194,-1.327 11.745,-0.632 16.733,-3.666 56.515,-34.375 116.63,-75.512 116.63,-75.512 0,0 44.978,45.503 -23.828,107.282 0.277,1.516 15.732,14.86 16.732,16.816 1.882,-0.208 11.231,-2.256 127.325,-40.974 0,0 29.682,73.974 -73.204,107.789 -10.834,4.167 -5.731,12.44 -1.614,21.685 17.272,38.785 13,93 -0.5,151.5 -14.182,61.46 -64.814,131.449 -77.042,142.649 -124.517,28.3 -226.739,-60.872 -203.258,-80.394 31.579,-26.254 72.562,-60.575 89.642,-84.377 15.492,-21.59 12.658,-69.442 -8.842,-72.942 -55.855,-9.093 -136.412,18.098 -157.718,-2.594 -19.537,-18.972 -25.054,-61.501 -25.054,-61.501 l 11.264,-106.119 c 0,0 17.304,-14.188 43.5,-6.864"
   style="fill:#ffba00;fill-rule:nonzero"
   id="path1619" />
        </g>
        <g
   transform="translate(61.8893,142.677)"
   id="g1625">
            <path
   d="M 0,-19.374 C -5.331,-15.746 -6.727,-8.468 -3.119,-3.118 0.49,2.232 7.737,3.628 13.068,0 18.399,-3.628 19.795,-10.906 16.187,-16.256 12.578,-21.606 5.331,-23.002 0,-19.374"
   style="fill:#231f20;fill-rule:nonzero"
   id="path1623" />
        </g>
        <g
   transform="translate(5.32733,20.3966)"
   id="g1635">
            <g
   transform="translate(218.784,173.696)"
   id="g1629">
                <path
   d="M 0,-31.284 C -11.074,-17.782 -4.657,3.153 5.476,11.506 15.609,19.858 29.895,17.758 40.969,4.255 52.042,-9.247 50.885,-34.788 36.779,-43.96 25.733,-51.142 13.307,-47.509 0,-31.284"
   style="fill:#2f2f2f;fill-rule:nonzero"
   id="path1627" />
            </g>
            <g
   transform="matrix(-0.655273,0.755392,0.755392,0.655273,264.507,152.83)"
   id="g1633">
                <path
   d="M 22.091,-41.365 C 39.547,-40.883 51.156,-22.317 50.826,-9.19 50.495,3.938 39.547,13.353 22.091,12.87 4.636,12.387 -13.9,-5.223 -11.585,-21.889 c 1.813,-13.05 12.7,-20.056 33.676,-19.476 z"
   style="fill:none;fill-rule:nonzero;stroke:#1b2031;stroke-width:5px"
   id="path1631" />
            </g>
        </g>
        <g
   transform="translate(15.9072,19.0498)"
   id="g1645">
            <g
   transform="translate(2.0039,234.417)"
   id="g1639">
                <path
   d="m 0,-43.055 c 3.257,13.535 10.07,25.521 18.224,36.333 4.887,6.482 12.223,18.572 20.403,10.698 5.984,-5.76 10.513,-13.822 14.996,-20.938 3.848,-6.11 6.244,-12.932 7.57,-13.266 1.325,-0.333 13.351,16.672 23.356,28.689 0.75,0.9 7.14,9.249 12.213,8.418 6.506,-1.065 7.893,-5.106 10.344,-8.092 5.265,-6.411 8.393,-11.041 13.248,-17.823 2.787,-3.893 5.55,-7.811 8.195,-11.821 1.712,-2.594 3.824,-5.432 4.805,-8.494 2.97,-9.269 -10.284,-14.984 -13.254,-5.714 -0.462,1.441 0.342,-0.563 0.211,-0.345 -0.349,0.575 -0.666,1.174 -1.013,1.75 -1.066,1.768 -2.21,3.48 -3.355,5.184 -3.034,4.513 -6.18,8.936 -9.36,13.325 -3.057,4.22 -6.151,8.409 -9.321,12.527 -1.201,1.561 -3.036,1.229 -4.383,-0.276 -3.893,-4.348 -8.262,-9.232 -12.013,-13.724 -5.673,-6.794 -9.734,-13.484 -16.378,-19.635 -2.923,-2.707 -9.122,-1.516 -11.13,1.65 -3.773,5.948 -5.934,11.65 -9.345,17.86 -2.313,4.209 -8.287,15.631 -10.533,15.534 -1.917,-0.083 -4.818,-5.475 -6.926,-8.44 C 21.092,-27.336 16.16,-35.913 13.894,-45.33 11.589,-54.905 -2.324,-52.712 0,-43.055"
   style="fill:#2f2f2f;fill-rule:nonzero"
   id="path1637" />
            </g>
            <g
   transform="translate(2.0039,234.417)"
   id="g1643">
                <path
   d="m 0,-43.055 c 3.257,13.535 10.07,25.521 18.224,36.333 4.887,6.482 12.223,18.572 20.403,10.698 5.984,-5.76 10.513,-13.822 14.996,-20.938 3.848,-6.11 6.244,-12.932 7.57,-13.266 1.325,-0.333 13.351,16.672 23.356,28.689 0.75,0.9 7.14,9.249 12.213,8.418 6.506,-1.065 7.893,-5.106 10.344,-8.092 5.265,-6.411 8.393,-11.041 13.248,-17.823 2.787,-3.893 5.55,-7.811 8.195,-11.821 1.712,-2.594 3.824,-5.432 4.805,-8.494 2.97,-9.269 -10.284,-14.984 -13.254,-5.714 -0.462,1.441 0.342,-0.563 0.211,-0.345 -0.349,0.575 -0.666,1.174 -1.013,1.75 -1.066,1.768 -2.21,3.48 -3.355,5.184 -3.034,4.513 -6.18,8.936 -9.36,13.325 -3.057,4.22 -6.151,8.409 -9.321,12.527 -1.201,1.561 -3.036,1.229 -4.383,-0.276 -3.893,-4.348 -8.262,-9.232 -12.013,-13.724 -5.673,-6.794 -9.734,-13.484 -16.378,-19.635 -2.923,-2.707 -9.122,-1.516 -11.13,1.65 -3.773,5.948 -5.934,11.65 -9.345,17.86 -2.313,4.209 -8.287,15.631 -10.533,15.534 -1.917,-0.083 -4.818,-5.475 -6.926,-8.44 C 21.092,-27.336 16.16,-35.913 13.894,-45.33 11.589,-54.905 -2.324,-52.712 0,-43.055 Z"
   style="fill:none;fill-rule:nonzero;stroke:#1b2031;stroke-width:4px"
   id="path1641" />
            </g>
        </g>
        <g
   transform="matrix(0.931808,0,0,1.03631,-119.161,-61.4971)"
   id="g1649">
            <path
   d="m 187.248,311.021 c 0,0 -14.811,86.462 -7.079,99.522 3.981,6.724 20.402,-60.024 31.038,-59.295 4.578,0.314 12.879,57.938 16.312,55.786 15.956,-9.998 19.052,-95.895 19.052,-95.895 -4.341,-1.651 -15.54,-13.087 -33.958,-34.822 -5.867,11.926 -14.548,24.079 -25.365,34.704 z"
   style="fill:#d7598b"
   id="path1647" />
        </g>
    </g>
<g
   inkscape:groupmode="layer"
   id="layer1"
   inkscape:label="Layer 1"
   transform="translate(-15.660241,74.949605)" /><path
   style="fill:#076d14;fill-opacity:0.99689;stroke-width:0.219135"
   d="m 161.69208,173.95633 c -0.0139,-0.052 0.16245,-0.77757 0.39205,-1.61242 0.9913,-3.60528 1.47677,-7.97012 1.32404,-11.90427 -0.17635,-4.54269 -0.63828,-7.1946 -2.67413,-15.3522 l -1.92797,-7.7253 1.61799,1.43652 c 5.52619,4.90641 10.71554,12.20213 12.70416,17.86087 l 0.63156,1.79709 1.02553,-2.20149 c 1.44096,-3.09321 2.14237,-5.25637 2.77874,-8.56971 1.32513,-6.89956 1.05452,-12.55806 -1.2579,-26.30133 -0.53074,-3.15431 -1.0054,-6.12526 -1.0548,-6.60209 l -0.0898,-0.86699 0.97752,1.24653 c 5.42639,6.91978 11.69118,18.63332 14.89519,27.85018 0.48838,1.40492 0.94266,2.58598 1.00952,2.62458 0.33721,0.19469 1.33132,-9.10534 1.46739,-13.72794 0.52189,-17.72832 -3.14834,-33.73251 -11.38568,-49.647894 -1.67951,-3.24497 -3.76032,-6.819259 -3.94162,-6.770682 -0.0874,0.02341 -0.62353,0.524684 -1.19148,1.113933 -3.34239,3.467801 -9.87395,6.842066 -16.87594,8.71824 -5.63537,1.509996 -10.45717,2.026614 -16.10579,1.7256 -7.78731,-0.414977 -12.92428,-2.562231 -19.05044,-7.96309 -2.85452,-2.516545 -5.65753,-5.614456 -11.47955,-12.687274 -6.66397,-8.095647 -10.58418,-12.260458 -14.653841,-15.568172 -0.68474,-0.556537 -1.22219,-1.051347 -1.19435,-1.099579 0.0279,-0.04824 1.38301,0.156888 3.011481,0.455835 9.61629,1.765296 16.18023,1.553439 30.00633,-0.968467 11.48773,-2.09538 14.97602,-2.211949 22.03298,-0.736292 9.14217,1.911694 15.21114,5.534068 20.17234,12.040227 0.8118,1.064592 1.55189,1.915282 1.64466,1.890422 0.0928,-0.02486 -0.011,-0.715704 -0.23056,-1.535211 -1.3678,-5.104736 -1.47269,-10.940263 -0.29834,-16.599692 2.8983,-13.96758 14.43379,-29.568931 29.75856,-40.2474416 1.71883,-1.197708 6.08623,-3.940008 6.41528,-4.02816999654 C 210.25226,-0.0280976 210.02985,0.8969974 209.65101,2.0562704 c -1.44525,4.422387 -2.1361,10.1096416 -1.89494,15.5994176 0.14978,3.409868 0.46306,5.985893 1.72608,14.193577 1.70659,11.090218 1.8854,15.029942 0.89717,19.766725 -1.13617,5.445885 -6.37584,13.170382 -11.60048,17.101855 -2.43531,1.832529 -4.44297,2.747585 -7.62167,3.473838 -2.38061,0.543911 -2.9647,0.594884 -5.10915,0.445869 -1.3317,-0.09254 -2.44183,-0.132622 -2.46697,-0.08909 -0.0252,0.04357 0.74313,1.488716 1.70726,3.211509 3.36517,6.013215 6.05821,11.940871 8.33644,18.349294 1.43789,4.044631 4.09398,14.681605 4.65602,18.646145 1.59364,11.24133 1.49512,22.09987 -0.30297,33.39298 -0.27674,1.73811 -0.45568,3.1876 -0.39766,3.2211 0.058,0.0335 0.84171,-0.7536 1.74151,-1.74911 5.32808,-5.89473 7.69906,-11.4163 9.15358,-21.31703 l 0.33796,-2.30049 0.89946,2.30922 c 1.58344,4.06525 3.19723,9.80118 3.45832,12.292 0.42404,4.04551 -0.17303,8.64663 -1.7471,13.46326 -0.41589,1.27271 -0.7301,2.41144 -0.6982,2.53051 0.0378,0.14093 0.54266,0.0307 1.44669,-0.31592 6.6774,-2.56021 11.34834,-9.69325 13.01486,-19.8751 l 0.36053,-2.20267 0.36447,0.87409 c 0.80455,1.92951 3.87806,12.86285 3.86846,13.7612 -0.005,0.49349 0.0473,0.93009 0.11676,0.97021 0.24781,0.14308 2.52914,-1.35115 3.82116,-2.50278 0.72274,-0.6442 1.76818,-1.69661 2.32321,-2.33868 0.55504,-0.64206 1.05156,-1.14291 1.1034,-1.11299 0.0518,0.0299 0.12621,0.86139 0.16529,1.84768 0.0391,0.98629 0.13245,3.05293 0.2075,4.59251 0.0751,1.53958 0.13247,3.38733 0.12758,4.10609 l -0.009,1.30685 -37.95965,10.17127 c -20.8778,5.59419 -37.97104,10.12871 -37.98496,10.07675 z"
   id="path2026"
   inkscape:label="plont" /></svg>
