<?xml version="1.0" encoding="UTF-8" standalone="no"?>
<svg
   width="100%"
   height="100%"
   viewBox="0 0 512 512"
   version="1.1"
   xml:space="preserve"
   style="fill-rule:evenodd;clip-rule:evenodd;stroke-linecap:round;stroke-linejoin:round;stroke-miterlimit:1.5;"
   id="svg12145"
   sodipodi:docname="dragnsad_plont.svg"
   inkscape:version="1.2.2 (b0a8486541, 2022-12-01)"
   xmlns:inkscape="http://www.inkscape.org/namespaces/inkscape"
   xmlns:sodipodi="http://sodipodi.sourceforge.net/DTD/sodipodi-0.dtd"
   xmlns="http://www.w3.org/2000/svg"
   xmlns:svg="http://www.w3.org/2000/svg"
   xmlns:serif="http://www.serif.com/"><defs
   id="defs12149" /><sodipodi:namedview
   id="namedview12147"
   pagecolor="#ffffff"
   bordercolor="#000000"
   borderopacity="0.25"
   inkscape:showpageshadow="2"
   inkscape:pageopacity="0.0"
   inkscape:pagecheckerboard="0"
   inkscape:deskcolor="#d1d1d1"
   showgrid="false"
   inkscape:zoom="1.4960938"
   inkscape:cx="256"
   inkscape:cy="257.67102"
   inkscape:window-width="1906"
   inkscape:window-height="920"
   inkscape:window-x="5"
   inkscape:window-y="42"
   inkscape:window-maximized="1"
   inkscape:current-layer="svg12145" />
    <g
   id="Layer-2"
   serif:id="Layer 2">
        <g
   transform="matrix(-0.968932,-0.412707,-0.396927,0.931884,371.104,568.718)"
   id="g12129">
            <path
   d="M31.699,-280.145C58.721,-282.622 61.585,-263.544 61.585,-263.544L108.156,-289.598C108.156,-289.598 101.887,-311.375 133.584,-320.589C140.909,-326.198 143.461,-331.557 171.425,-351.087C175.865,-354.188 192.477,-371.094 197.247,-374.486C251.295,-412.912 308.475,-458.347 308.475,-458.347C308.475,-458.347 356.422,-416.249 291.969,-349.587C292.348,-348.095 311.33,-355.797 312.686,-354.088C314.49,-354.683 323.257,-358.632 429.57,-420.687C429.57,-420.687 472.868,-354.371 378.555,-299.864C365.272,-279.409 390.607,-250.458 402.623,-215.592C413.226,-184.825 424.842,-147.079 413.339,-96.847C399.259,-35.362 353.653,41.266 341.425,52.466C230.44,64.021 125.382,-22.464 121.799,-42.515C119.088,-57.686 210.29,-106.387 227.37,-130.189C242.862,-151.779 240.522,-173.563 219.174,-169.171C163.713,-157.762 92.079,-99.485 65.233,-111.309C40.617,-122.149 21.386,-160.119 21.386,-160.119L9.3,-268.722C9.3,-268.722 4.677,-277.667 31.699,-280.145"
   style="fill:rgb(255,186,0);fill-rule:nonzero;"
   id="path12127" />
        </g>
        <g
   transform="matrix(-0.927403,-0.374063,-0.374063,0.927403,433.904,335.277)"
   id="g12133">
            <path
   d="M0,-19.374C-5.331,-15.746 -6.727,-8.468 -3.119,-3.118C0.49,2.232 7.737,3.628 13.068,0C18.399,-3.628 19.795,-10.906 16.187,-16.256C12.578,-21.606 5.331,-23.002 0,-19.374"
   style="fill:rgb(35,31,32);fill-rule:nonzero;"
   id="path12131" />
        </g>
    </g>
    <g
   id="Layer1">
    </g>
    <g
   transform="matrix(-0.93062,-0.37536,-0.37536,0.93062,773.715,167.882)"
   id="g12139">
        <path
   d="M408.248,229.857C411.47,239.528 421.388,248.424 423.914,250.383C425.766,251.819 442.794,258.164 450.807,257.589C450.821,258.086 450.828,258.585 450.828,259.087C450.828,281.106 437.355,298.982 420.76,298.982C404.164,298.982 393.854,285.625 393.854,263.606C393.854,250.547 400.929,237.137 408.248,229.857Z"
   style="fill:rgb(47,47,47);stroke:rgb(27,32,49);stroke-width:5.34px;"
   id="path12137" />
    </g>
    <g
   transform="matrix(0.410436,0.374102,-0.466754,0.512087,407.762,71.3219)"
   id="g12143">
        <path
   d="M329.977,322.544C347.842,322.66 366.187,325.852 382.075,333.234C392.56,338.104 401.376,346.367 410.652,354.031C416.2,358.615 421.685,363.278 427.104,368.009C430.984,371.396 432.558,377.79 429.649,382.191C426.567,386.854 419.416,388.177 414.863,384.864C412.948,383.471 411.322,381.831 409.563,380.314C398.154,370.501 386.998,359.751 374.15,352.523C368.245,349.2 361.236,347.475 354.284,345.955C322.69,339.048 281.979,351.004 254.237,365.557C245.522,370.129 237.662,376.255 229.672,382.193C220.359,389.115 211.002,396.018 202.352,403.688C202.183,403.84 202.034,403.976 202.034,403.976L201.319,404.575C198.966,406.21 198.395,406.229 197.11,406.494C191.074,407.739 184.486,402.421 184.619,396.096C184.736,390.541 190.227,386.619 195.05,382.715C208.93,371.482 223.102,360.424 238.081,350.958C262.382,335.601 298.706,322.876 327.876,322.549C328.577,322.544 329.277,322.542 329.977,322.544Z"
   style="fill:rgb(47,47,47);fill-rule:nonzero;stroke:rgb(27,32,49);stroke-width:8.54px;stroke-linecap:butt;stroke-miterlimit:1.41421;"
   id="path12141" />
    </g>
<path
   style="clip-rule:evenodd;fill:#076d14;fill-opacity:0.99689;fill-rule:evenodd;stroke-width:0.219135;stroke-miterlimit:10"
   d="m 368.87496,216.39463 c 0.0467,-0.0268 0.43493,-0.66472 0.86289,-1.41739 1.84837,-3.25029 4.59153,-6.67994 7.48135,-9.35384 3.33686,-3.08746 5.53868,-4.63603 12.74656,-8.96476 l 6.82587,-4.09931 -2.15987,-0.12834 c -7.37694,-0.43826 -16.20522,1.05116 -21.61271,3.64635 l -1.71733,0.82415 0.83153,-2.28185 c 1.16803,-3.20624 2.20193,-5.2317 4.09483,-8.02456 3.94171,-5.81574 8.13422,-9.62555 19.48732,-17.7084 2.60573,-1.85513 5.04213,-3.62027 5.41423,-3.9225 l 0.67659,-0.54956 -1.57268,0.19021 c -8.73005,1.056 -21.44266,4.90884 -30.22555,9.16057 -1.33875,0.64808 -2.4951,1.16201 -2.56967,1.14203 -0.3761,-0.10087 5.49706,-7.37985 8.66951,-10.74473 12.1668,-12.90485 26.0787,-21.62628 43.15725,-27.05548 3.48214,-1.10694 7.48089,-2.16298 7.57474,-2.00045 0.0453,0.0784 0.0699,0.8119 0.0548,1.63019 -0.0887,4.81552 2.14387,11.82 5.76836,18.0978 2.91709,5.05254 5.9613,8.82737 10.16832,12.6087 5.79989,5.21303 10.95063,7.32708 19.10146,7.83994 3.79793,0.23902 7.9705,0.0305 17.08853,-0.85399 10.43661,-1.01235 16.15359,-1.1853 21.3702,-0.64652 0.87772,0.0906 1.60764,0.12078 1.62204,0.067 0.0147,-0.0538 -1.08888,-0.867 -2.45176,-1.80711 -8.048,-5.5515 -12.53961,-10.3427 -20.53287,-21.9025 -6.64139,-9.6047 -9.02557,-12.15373 -15.05904,-16.10031 -7.81626,-5.11271 -14.66906,-6.84272 -22.77771,-5.75027 -1.32682,0.17876 -2.45168,0.25696 -2.49969,0.17379 -0.0479,-0.0832 0.51384,-0.49832 1.24859,-0.92253 4.57677,-2.64242 8.77729,-6.69459 11.94871,-11.5268 7.82716,-11.92598 10.70216,-31.114624 7.41678,-49.501711 -0.3685,-2.062313 -1.51763,-7.089633 -1.68797,-7.384646 -0.0555,-0.09601 -0.5522,0.715416 -1.1041,1.802985 -2.10518,4.149041 -5.63815,8.659047 -9.69053,12.370383 -2.51706,2.305229 -4.5601,3.905234 -11.2569,8.815847 -9.0487,6.635232 -11.96095,9.294601 -14.61158,13.342792 -3.04744,4.65422 -4.80446,13.82126 -3.89007,20.29562 0.42624,3.01781 1.19882,5.08448 2.93297,7.8457 1.29875,2.06795 1.67571,2.51701 3.29743,3.92799 1.00704,0.87624 1.82041,1.63286 1.80742,1.68142 -0.0123,0.0488 -1.57814,0.52721 -3.4781,1.06366 -6.63152,1.87245 -12.72727,4.15967 -18.86967,7.08016 -3.87672,1.84324 -13.27633,7.48657 -16.47711,9.89251 -9.07569,6.82194 -16.68417,14.56977 -23.39817,23.82664 -1.03335,1.42471 -1.93176,2.57618 -1.99647,2.55884 -0.0648,-0.0175 -0.0623,-1.12805 0.005,-2.46824 0.40068,-7.93573 2.62847,-13.5166 8.60085,-21.54599 l 1.38769,-1.86568 -2.2689,0.99685 c -3.99423,1.75489 -9.19126,4.6697 -11.13716,6.24637 -3.16044,2.56075 -5.99173,6.23643 -8.28456,10.75533 -0.60587,1.19403 -1.18887,2.22142 -1.2956,2.28307 -0.12638,0.073 -0.40544,-0.36202 -0.79959,-1.24637 -2.9113,-6.53197 -1.17032,-14.87866 4.85092,-23.25672 l 1.30256,-1.81246 -0.8758,0.36035 c -1.93326,0.79547 -11.83759,6.35321 -12.46605,6.99524 -0.34535,0.35251 -0.69112,0.6242 -0.76861,0.60346 -0.27642,-0.074 -0.83294,-2.74377 -0.93223,-4.4717 -0.0555,-0.96656 -0.0506,-2.44997 0.0109,-3.29647 0.0615,-0.84648 0.0646,-1.55172 0.007,-1.56721 -0.0577,-0.0157 -0.69832,0.51987 -1.42339,1.18963 -0.72504,0.66978 -2.25239,2.06509 -3.39412,3.10066 -1.14174,1.03555 -2.48888,2.30154 -2.99365,2.81324 l -0.91772,0.93046 19.64936,34.0337 c 10.80713,18.71851 19.6875,34.01166 19.73408,33.98475 z"
   id="path2026"
   inkscape:label="plont" /></svg>
