<?xml version="1.0" encoding="UTF-8" standalone="no"?>
<svg
   width="100%"
   height="100%"
   viewBox="0 0 512 512"
   version="1.1"
   xml:space="preserve"
   style="fill-rule:evenodd;clip-rule:evenodd;stroke-linecap:round;stroke-linejoin:round;stroke-miterlimit:1.5;"
   id="svg11352"
   sodipodi:docname="dragnloaf_plont.svg"
   inkscape:version="1.2.2 (b0a8486541, 2022-12-01)"
   xmlns:inkscape="http://www.inkscape.org/namespaces/inkscape"
   xmlns:sodipodi="http://sodipodi.sourceforge.net/DTD/sodipodi-0.dtd"
   xmlns="http://www.w3.org/2000/svg"
   xmlns:svg="http://www.w3.org/2000/svg"><defs
   id="defs11356" /><sodipodi:namedview
   id="namedview11354"
   pagecolor="#ffffff"
   bordercolor="#000000"
   borderopacity="0.25"
   inkscape:showpageshadow="2"
   inkscape:pageopacity="0.0"
   inkscape:pagecheckerboard="0"
   inkscape:deskcolor="#d1d1d1"
   showgrid="false"
   inkscape:zoom="1.4960938"
   inkscape:cx="256"
   inkscape:cy="151.39426"
   inkscape:window-width="1906"
   inkscape:window-height="920"
   inkscape:window-x="5"
   inkscape:window-y="42"
   inkscape:window-maximized="1"
   inkscape:current-layer="svg11352" />
    <path
   d="M138.276,210.482C106.007,220.899 85.082,248.319 66.504,248.396C48.274,248.472 38.209,240.922 38.209,240.922L7.713,176.506C7.713,176.506 2.155,163.129 21.435,155.313C38.667,148.327 50.177,166.692 50.177,166.692L62.816,135.559C62.816,135.559 59.059,116.984 74.309,99.792C81.025,95.486 103.343,77.618 103.343,77.618L150.132,0.456C147.058,-2.28 190.305,18.384 164.353,73.392C165.095,74.608 177.092,70.989 177.819,72.87C179.32,72.188 181.969,80.804 255.802,25.788C255.802,25.788 304.204,59.304 226.678,116.838C224.748,118.423 220.301,124.212 214.333,132.175C218.254,137.84 222.082,143.775 225.643,149.796C252.316,107.362 289.713,63.799 356.059,58.036C409.472,53.396 451.827,69.443 478.53,111.839C491.375,132.234 506.283,178.423 509.08,229.673C512.249,287.742 502.023,351.112 495.015,368.943C450.435,482.369 367.796,511.08 212.183,511.99C84.341,512.738 17.494,431.155 6.192,377.323C0.588,350.63 7.303,329.912 12.583,314.691C23.547,283.078 59.331,270.204 61.164,269.497C62.477,268.991 63.194,268.694 64.877,270.643C65.787,271.698 48.073,298.261 43.567,329.947C41.775,342.547 44.38,357.069 55.805,379.339C76.155,419.006 142.701,440.682 225.336,437.502C303.424,434.497 383.409,367.153 356.908,290.072C356.592,289.154 351.741,286.692 349.691,286.304C306.058,278.059 300.968,319.794 278.319,356.278C273.661,363.782 268.645,369.808 263.341,374.576C247.556,402.356 223.641,429.225 209.346,425.588C178.147,417.649 168.175,401.18 173.573,379.479C167.485,377.214 161.472,374.775 155.596,372.355C151.963,370.858 148.306,369.601 144.687,368.483C139.48,376.411 133.605,382.526 127.752,385.285C106.367,395.363 86.895,378.372 85.916,369.3C82.56,338.212 85.776,298.521 110.766,277.855C118.059,267.879 127.477,260.372 137.615,253.327C146.398,238.367 150.897,223.033 138.276,210.482Z"
   style="fill:rgb(255,186,0);"
   id="path11327" />
    <g
   id="Artboard4"
   transform="matrix(1,0,0,1,-1686,0)">
        <rect
   x="1686"
   y="0"
   width="512"
   height="512"
   style="fill:none;"
   id="rect11329" />
        <g
   transform="matrix(-0.577447,0.113291,0.137661,0.650656,2219.03,-84.6234)"
   id="g11333">
            <path
   d="M691.441,270.405C703.251,258.395 733.481,238.43 773.225,257.4"
   style="fill:none;stroke:rgb(47,47,47);stroke-width:33.41px;"
   id="path11331" />
        </g>
        <g
   transform="matrix(0.232462,-1.19811,1.13015,0.219276,1447.36,684.477)"
   id="g11337">
            <path
   d="M439.319,399.057C465.029,413.46 510.053,429.39 513.207,458.913C515.443,479.834 504.223,493.454 481.509,493.454C458.795,493.454 403.467,452.042 403.467,431.002C403.467,409.962 419.503,387.955 439.319,399.057Z"
   style="fill:rgb(255,186,0);"
   id="path11335" />
        </g>
        <g
   transform="matrix(0.831064,0.78104,-0.69058,0.776189,1731.23,201.524)"
   id="g11341">
            <path
   d="M6.534,-21.372C12.982,-21.345 18.21,-16.092 18.21,-9.639C18.21,-3.185 12.982,2.024 6.534,1.998C0.086,1.971 -5.142,-3.282 -5.142,-9.735C-5.142,-16.189 0.086,-21.398 6.534,-21.372"
   style="fill:rgb(35,31,32);fill-rule:nonzero;"
   id="path11339" />
        </g>
        <g
   transform="matrix(-1.2693,0.211841,-0.194171,-1.16342,2433.08,642.085)"
   id="g11345">
            <path
   d="M348.746,363.888C348.746,363.888 343.121,368.885 336.345,377.849C331.155,384.713 325.102,393.691 321.035,405.243C319.558,409.438 318.31,413.943 317.584,418.762C317.132,421.768 316.913,424.898 316.907,428.114C316.887,439.125 319.342,450.993 324.112,463.956C326.171,469.553 328.552,475.418 331.686,481.405C332.057,482.164 332.922,482.452 333.618,482.048C334.314,481.645 334.578,480.701 334.208,479.941C331.495,473.947 329.288,468.193 327.807,462.571C324.523,450.104 324.555,438.764 325.486,428.589C325.747,425.732 326.115,422.975 326.483,420.286C327.077,415.95 327.747,411.823 328.677,407.919C331.342,396.74 335.268,387.306 339.486,380.393C345.118,371.163 350.549,366.304 350.549,366.304C351.161,365.762 351.253,364.779 350.755,364.113C350.258,363.446 349.358,363.345 348.746,363.888Z"
   style="fill:rgb(212,100,38);"
   id="path11343" />
        </g>
        <g
   transform="matrix(1.27784,0.152016,-0.139336,1.17125,1643.09,-329.602)"
   id="g11349">
            <path
   d="M330.07,388.43C330.07,388.43 326.452,393.282 322.56,401.479C319.588,407.737 316.256,415.765 314.999,425.627C314.548,429.161 314.337,432.906 314.623,436.809C314.8,439.219 315.197,441.682 315.788,444.169C317.78,452.555 321.867,461.06 327.743,470.176C330.249,474.065 332.976,478.148 336.295,482.193C336.798,482.855 337.699,482.947 338.306,482.399C338.913,481.85 338.997,480.867 338.494,480.205C335.575,476.045 333.031,472.017 331.078,467.956C326.731,458.919 325.16,450.251 324.221,442.385C323.957,440.172 323.784,438.024 323.595,435.935C323.288,432.541 323.02,429.318 323.006,426.211C322.968,417.131 324.135,409.235 326.144,403.192C328.847,395.057 332.285,390.397 332.285,390.397C332.782,389.731 332.69,388.749 332.079,388.206C331.468,387.663 330.568,387.763 330.07,388.43Z"
   style="fill:rgb(212,100,38);"
   id="path11347" />
        </g>
    </g>
<path
   style="clip-rule:evenodd;fill:#076d14;fill-opacity:0.99689;fill-rule:evenodd;stroke-width:0.0915169;stroke-miterlimit:10"
   d="m 75.877922,99.895623 c -0.01289,-0.0184 -0.04731,-0.328363 -0.07646,-0.68878 -0.125943,-1.55646 -0.558878,-3.338752 -1.180764,-4.86086 -0.718076,-1.757559 -1.278167,-2.732284 -3.242306,-5.642884 l -1.860078,-2.756349 0.840155,0.332641 c 2.869528,1.136139 5.948148,3.258053 7.536843,5.194732 l 0.504542,0.61504 0.08801,-1.010439 c 0.123663,-1.419727 0.08995,-2.36883 -0.133582,-3.760022 -0.465478,-2.896955 -1.379924,-5.078934 -4.250461,-10.142072 -0.658839,-1.162076 -1.269479,-2.260202 -1.356973,-2.440275 l -0.159082,-0.327414 0.561671,0.349564 c 3.117946,1.940521 7.24964,5.642562 9.82354,8.801995 0.392337,0.481591 0.739314,0.8802 0.771068,0.885798 0.160149,0.02825 -0.778117,-3.763482 -1.384998,-5.59702 -2.327451,-7.031882 -6.053796,-12.788356 -11.559787,-17.857622 -1.122612,-1.033566 -2.449751,-2.139049 -2.513962,-2.09409 -0.03096,0.02169 -0.169754,0.294972 -0.308476,0.607342 -0.816363,1.83833 -2.89765,4.095482 -5.377537,5.831916 -1.995872,1.397525 -3.814358,2.289003 -6.074109,2.977704 -3.115342,0.949465 -5.438012,0.84054 -8.613619,-0.40394 -1.47969,-0.579865 -3.022207,-1.395242 -6.317274,-3.339313 -3.771582,-2.225209 -5.904927,-3.299704 -7.974497,-4.01649 -0.348216,-0.120602 -0.629809,-0.238019 -0.625775,-0.260923 0.0041,-0.02293 0.565163,-0.135975 1.246943,-0.251267 4.025986,-0.680788 6.57169,-1.701506 11.637411,-4.666088 4.20897,-2.46319 5.561273,-3.007194 8.541498,-3.436082 3.860832,-0.555614 6.759959,-9.16e-4 9.636266,1.843731 0.470646,0.301834 0.8826,0.529969 0.915457,0.506962 0.03286,-0.02304 -0.106548,-0.279299 -0.309768,-0.569547 -1.26593,-1.807941 -2.140623,-4.083066 -2.488135,-6.471805 -0.857677,-5.895449 1.440881,-13.665772 5.929675,-20.045417 0.503461,-0.715542 1.825711,-2.415563 1.942252,-2.497162 0.03789,-0.0266 0.08274,0.368246 0.09968,0.877299 0.0645,1.941967 0.605733,4.272564 1.484523,6.392535 0.545881,1.316766 1.03674,2.282972 2.704759,5.323607 2.253834,4.108505 2.886739,5.629078 3.175508,7.629147 0.332004,2.29948 -0.620927,6.079317 -2.109732,8.368464 -0.693964,1.067016 -1.35115,1.71289 -2.494871,2.451938 -0.85656,0.553495 -1.078502,0.656928 -1.941358,0.904755 -0.535827,0.153925 -0.977222,0.296735 -0.980868,0.317414 -0.0037,0.0207 0.504278,0.478088 1.128724,1.016472 2.179545,1.879166 4.083096,3.820762 5.89253,6.010279 1.142013,1.381899 3.703731,5.176906 4.490584,6.652478 2.23109,4.183941 3.74343,8.45936 4.650861,13.148087 0.139666,0.721636 0.276477,1.316038 0.304031,1.320897 0.02755,0.0049 0.222678,-0.415973 0.433602,-0.935177 1.24897,-3.074385 1.390757,-5.579949 0.547381,-9.673172 l -0.195971,-0.951081 0.68283,0.777759 c 1.202078,1.369201 2.654706,3.389709 3.112944,4.329921 0.744256,1.527064 1.167122,3.41803 1.237428,5.533098 0.01858,0.558871 0.05792,1.050636 0.08748,1.092806 0.03498,0.0499 0.217343,-0.06548 0.522618,-0.330624 2.254799,-1.958516 3.069004,-5.425004 2.268672,-9.658833 l -0.173136,-0.915919 0.267884,0.290972 c 0.591343,0.642301 3.359211,4.493992 3.483761,4.847915 0.0686,0.194351 0.15146,0.358234 0.18444,0.36406 0.11769,0.02075 0.79955,-0.891503 1.142086,-1.527998 0.19162,-0.356047 0.45157,-0.918385 0.57767,-1.249637 0.12612,-0.331253 0.24944,-0.59873 0.27405,-0.594393 0.0246,0.0043 0.17251,0.320036 0.32876,0.701505 0.15622,0.381485 0.48804,1.179184 0.73746,1.772639 0.24939,0.593462 0.53578,1.310424 0.63659,1.593175 l 0.18287,0.514233 -13.444129,9.413683 c -7.394269,5.17752 -13.454675,9.398612 -13.46756,9.380211 z"
   id="path2026"
   inkscape:label="plont" /></svg>
