<?xml version="1.0" encoding="UTF-8" standalone="no"?>
<svg
   width="512"
   height="596.86603"
   viewBox="0 0 512 596.86603"
   version="1.1"
   xml:space="preserve"
   style="clip-rule:evenodd;fill-rule:evenodd;stroke-linejoin:round;stroke-miterlimit:2"
   id="svg10022"
   sodipodi:docname="dragndrool_plont.svg"
   inkscape:version="1.2.2 (b0a8486541, 2022-12-01)"
   xmlns:inkscape="http://www.inkscape.org/namespaces/inkscape"
   xmlns:sodipodi="http://sodipodi.sourceforge.net/DTD/sodipodi-0.dtd"
   xmlns="http://www.w3.org/2000/svg"
   xmlns:svg="http://www.w3.org/2000/svg"
   xmlns:serif="http://www.serif.com/"><defs
   id="defs10026" /><sodipodi:namedview
   id="namedview10024"
   pagecolor="#ffffff"
   bordercolor="#000000"
   borderopacity="0.25"
   inkscape:showpageshadow="2"
   inkscape:pageopacity="0.0"
   inkscape:pagecheckerboard="0"
   inkscape:deskcolor="#d1d1d1"
   showgrid="false"
   inkscape:zoom="1.4960938"
   inkscape:cx="255.6658"
   inkscape:cy="181.47258"
   inkscape:window-width="949"
   inkscape:window-height="920"
   inkscape:window-x="962"
   inkscape:window-y="24"
   inkscape:window-maximized="1"
   inkscape:current-layer="svg10022" />
    <rect
   id="Artboard1"
   x="0"
   y="84.866005"
   width="512"
   height="512"
   style="fill:none" />
    <g
   id="Artboard11"
   serif:id="Artboard1"
   transform="translate(0,84.866008)">
        <g
   id="Layer-2"
   serif:id="Layer 2">
            <g
   transform="translate(42.8599,460.333)"
   id="g10002">
                <path
   d="m -7.134,-352.248 c 26.838,4.427 29.077,25.042 29.077,25.042 l 60.706,-18.873 c 0,0 19.212,-41.889 51.819,-37.393 12.052,-1.057 25.647,2.017 89.59,-8.919 5.284,-0.904 12.243,-1.503 17.597,-3.83 60.671,-26.357 125.828,-58.923 125.828,-58.923 0,0 28.234,58.639 -43.233,91.646 0.444,1.476 -1.521,-1.585 0,0 1.742,-0.741 18.894,5.088 130.078,-46.049 0,0 37.566,70.299 -61.023,115.124 -10.316,5.322 -7.282,31.345 -3.165,40.59 17.272,38.785 13,93 -0.5,151.5 -14.182,61.46 -64.814,131.449 -77.042,142.649 -124.517,28.3 -246.941,-59.75 -223.46,-79.272 31.579,-26.254 72.562,-60.575 89.642,-84.377 15.492,-21.59 44.377,-70.33 22.623,-71.467 -56.513,-2.952 -165.817,49.812 -189.251,31.564 -21.487,-16.73 -31.606,-58.405 -31.606,-58.405 l -16.881,-123.03 c 0,0 2.363,-12.003 29.201,-7.577"
   style="fill:#ffba00;fill-rule:nonzero"
   id="path10000" />
            </g>
            <g
   transform="matrix(-0.829036,0.559195,0.559195,0.829036,50.4908,145.999)"
   id="g10006">
                <path
   d="m 6.534,-21.372 c 6.448,0.027 11.676,5.28 11.676,11.733 0,6.454 -5.228,11.663 -11.676,11.637 -6.448,-0.027 -11.676,-5.28 -11.676,-11.733 0,-6.454 5.228,-11.663 11.676,-11.637"
   style="fill:#231f20;fill-rule:nonzero"
   id="path10004" />
            </g>
            <g
   transform="matrix(-0.553108,0.152282,-0.152282,-0.553108,581.284,262.21)"
   id="g10010">
                <path
   d="m 676.18,237.68 c 29.969,-1.306 206.636,19.149 220.158,25.901 15.75,7.865 9.696,75.38 -111.84,67.024 C 665.112,322.396 647.595,238.926 676.18,237.68 Z"
   style="fill:#ea663d"
   id="path10008" />
            </g>
        </g>
        <g
   transform="matrix(-2.23267,-2.05428,-1.21651,1.32215,235.217,199.094)"
   id="g10015">
            <path
   d="m 7.814,-21.69 c 6.448,0.027 10.396,5.598 10.396,12.051 0,6.454 -3.218,9.44 -9.667,9.413 -6.448,-0.027 -11.285,-5.297 -11.285,-11.75 0,-6.454 4.107,-9.741 10.556,-9.714 z"
   style="fill:#231f20;fill-rule:nonzero"
   id="path10013" />
        </g>
        <g
   transform="matrix(1.06857,0,0,1.06857,-785.881,-177.311)"
   id="g10019">
            <path
   d="m 817.155,398.612 c 0,0 -7.068,-17.057 6.79,-18.652 7.711,-0.888 20.42,3.776 31.893,1.662 17.03,-3.138 17.073,-9.898 29.767,-11.748 17.077,-2.49 27.412,15.658 8.09,19.512 -4.481,0.894 -9.347,6.41 -9.347,17.157 0,12.898 -0.063,8.22 0.346,21.111 0.178,5.584 4.669,20.269 4.842,30.392 0.134,7.847 -6.4,14.514 -14.949,14.79 -7.797,0.252 -15.808,-4.597 -15.808,-14.163 0,-11.476 6.062,-24.894 6.014,-31.076 -0.124,-15.829 0.39,-4.737 0.037,-19.454 -0.295,-12.284 -24.565,-12.48 -29.136,-11.659 z"
   style="fill:#1fb8ef"
   id="path10017" />
        </g>
    </g>
<path
   style="clip-rule:evenodd;fill:#076d14;fill-opacity:0.99689;fill-rule:evenodd;stroke-width:0.219135;stroke-miterlimit:10"
   d="m 185.72489,162.89919 c -0.004,-0.0536 0.29501,-0.73755 0.66609,-1.51985 1.60229,-3.37836 2.83833,-7.59259 3.37108,-11.4935 0.61516,-4.50429 0.62055,-7.19615 0.0324,-15.58332 l -0.55719,-7.94272 1.34395,1.69565 c 4.59025,5.79149 8.43387,13.87749 9.40965,19.79558 l 0.30991,1.87946 1.39223,-1.98996 c 1.9562,-2.796 3.02258,-4.8045 4.22464,-7.957 2.50309,-6.56463 3.21918,-12.18416 3.32838,-26.12018 0.0251,-3.19855 0.0735,-6.20679 0.10768,-6.68496 l 0.0621,-0.86941 0.74621,1.39734 c 4.14234,7.75693 8.27792,20.38039 9.83277,30.01359 0.23699,1.46839 0.47929,2.71039 0.53843,2.76001 0.29828,0.25029 2.89221,-8.73583 3.82891,-13.26457 3.59245,-17.36836 2.7571,-33.76674 -2.59142,-50.870733 -1.09051,-3.487315 -2.51905,-7.368632 -2.70603,-7.352275 -0.0901,0.0079 -0.70517,0.408438 -1.36681,0.890112 -3.89379,2.834717 -10.91205,5.023526 -18.13346,5.655313 -5.81197,0.508484 -10.65022,0.179957 -16.16076,-1.097356 -7.59694,-1.760925 -12.283,-4.767583 -17.37824,-11.150187 -2.37416,-2.973996 -4.59664,-6.511579 -9.10203,-14.487929 -5.15693,-9.129842 -8.29438,-13.912118 -11.72782,-17.876268 -0.5777,-0.666986 -1.02106,-1.247606 -0.98527,-1.290271 0.0359,-0.04267 1.33475,0.394661 2.88657,0.971848 9.16366,3.408328 15.66467,4.339505 29.71864,4.25679 11.67706,-0.06872 15.1326,0.422214 21.8261,3.100881 8.67133,3.470172 14.01907,8.091379 17.77511,15.360198 0.61461,1.189387 1.19574,2.155668 1.29141,2.147295 0.0957,-0.0084 0.11343,-0.706743 0.0395,-1.551927 -0.46059,-5.264698 0.44945,-11.029784 2.5887,-16.39931 5.27971,-13.252097 19.34911,-26.613311 36.29534,-34.4684782 1.9007,-0.881042 6.67795,-2.82328904 7.01731,-2.852971044525 C 263.75939,-0.00971824 263.37972,0.86278276 262.80532,1.9386558 c -2.19123,4.104238 -3.85916,9.5851222 -4.57496,15.0333742 -0.44462,3.384074 -0.58341,5.975364 -0.76483,14.277676 -0.24514,11.218079 -0.75317,15.128999 -2.54891,19.622216 -2.06458,5.165856 -8.566,11.863141 -14.39396,14.827637 -2.71652,1.381803 -4.85258,1.934329 -8.10909,2.097576 -2.43889,0.122259 -3.02296,0.07103 -5.10896,-0.44808 -1.29539,-0.322381 -2.38171,-0.554627 -2.41401,-0.516121 -0.0324,0.03853 0.47332,1.595143 1.12364,3.459182 2.26987,6.506216 3.89266,12.811459 5.02346,19.518132 0.7137,4.232871 1.48235,15.169472 1.34741,19.171372 -0.3826,11.34729 -2.36519,22.02375 -6.09699,32.83306 -0.57436,1.66365 -1.00228,3.06005 -0.95096,3.10311 0.0513,0.0431 0.95979,-0.59599 2.01879,-1.42013 6.27073,-4.87996 9.56451,-9.90593 12.71618,-19.40367 l 0.73229,-2.20685 0.48481,2.43032 c 0.85346,4.27845 1.4467,10.20748 1.2713,12.70579 -0.28494,4.05768 -1.67187,8.48522 -4.05843,12.95534 -0.63057,1.18116 -1.13775,2.24803 -1.12701,2.37083 0.0128,0.14535 0.52909,0.12447 1.47957,-0.0599 7.02053,-1.3618 12.85915,-7.57537 16.26841,-17.31315 l 0.73754,-2.1066 0.20714,0.9241 c 0.45728,2.03991 1.58555,13.34085 1.42009,14.22389 -0.0906,0.48512 -0.11498,0.92417 -0.0535,0.97574 0.2192,0.18394 2.72534,-0.89144 4.19771,-1.80122 0.82363,-0.50891 2.03593,-1.36379 2.69402,-1.89973 0.65811,-0.53592 1.23405,-0.94294 1.27991,-0.90447 0.0458,0.0384 -0.0253,0.87021 -0.15769,1.84834 -0.13275,0.9781 -0.39969,3.02955 -0.59313,4.55877 -0.19342,1.52923 -0.45775,3.35887 -0.58738,4.06586 l -0.23579,1.28544 -39.14918,3.42512 c -21.53203,1.88381 -39.15299,3.38123 -39.15768,3.32764 z"
   id="path2026"
   inkscape:label="plont" /></svg>
