<?xml version="1.0" encoding="UTF-8" standalone="no"?>
<svg
   width="512"
   height="636.67773"
   viewBox="0 0 512 636.67773"
   version="1.1"
   xml:space="preserve"
   style="clip-rule:evenodd;fill-rule:evenodd;stroke-miterlimit:10"
   id="svg10769"
   sodipodi:docname="dragnhappy_plont.svg"
   inkscape:version="1.2.2 (b0a8486541, 2022-12-01)"
   xmlns:inkscape="http://www.inkscape.org/namespaces/inkscape"
   xmlns:sodipodi="http://sodipodi.sourceforge.net/DTD/sodipodi-0.dtd"
   xmlns="http://www.w3.org/2000/svg"
   xmlns:svg="http://www.w3.org/2000/svg"
   xmlns:serif="http://www.serif.com/"><sodipodi:namedview
   id="namedview10771"
   pagecolor="#ffffff"
   bordercolor="#000000"
   borderopacity="0.25"
   inkscape:showpageshadow="2"
   inkscape:pageopacity="0.0"
   inkscape:pagecheckerboard="0"
   inkscape:deskcolor="#d1d1d1"
   showgrid="false"
   inkscape:zoom="1.4960938"
   inkscape:cx="255.6658"
   inkscape:cy="242.96606"
   inkscape:window-width="949"
   inkscape:window-height="920"
   inkscape:window-x="962"
   inkscape:window-y="24"
   inkscape:window-maximized="1"
   inkscape:current-layer="svg10769" />
    <rect
   id="Artboard1"
   x="0"
   y="124.67771"
   width="512"
   height="512"
   style="fill:none" />
    <clipPath
   id="_clip1">
        <rect
   id="Artboard11"
   serif:id="Artboard1"
   x="0"
   y="0"
   width="512"
   height="512" />
    </clipPath>
    <g
   clip-path="url(#_clip1)"
   id="g10760"
   transform="translate(0,124.67771)">
        <g
   id="Layer-2"
   serif:id="Layer 2">
            <g
   transform="translate(42.8599,460.333)"
   id="g10737">
                <path
   d="m 0,-376.63 c 26.196,7.325 26.175,28.061 26.175,28.061 l 62.401,-12.146 c 0,0 23.662,-39.547 55.585,-31.524 12.095,0.262 25.275,4.799 90.028,0.895 5.351,-0.322 27.977,-5.429 33.775,-6.115 65.691,-7.765 137.467,-20.185 137.467,-20.185 0,0 10.148,64.287 -67.798,75.311 0,1.541 -1,-1.956 0,0 1.882,-0.208 11.231,-2.256 127.325,-40.974 0,0 29.682,73.974 -73.204,107.789 -10.834,4.167 -5.731,12.44 -1.614,21.685 17.272,38.785 13,93 -0.5,151.5 -14.182,61.46 -64.814,131.449 -77.042,142.649 -124.517,28.3 -246.941,-59.75 -223.46,-79.272 31.579,-26.254 72.562,-60.575 89.642,-84.377 15.492,-21.59 32.86,-70.564 11.36,-74.064 -55.855,-9.093 -170.257,31.447 -191.563,10.755 -19.537,-18.972 -25.054,-61.501 -25.054,-61.501 l -3.376,-124.137 c 0,0 3.657,-11.674 29.853,-4.35"
   style="fill:#ffba00;fill-rule:nonzero"
   id="path10735" />
            </g>
            <g
   transform="matrix(0,73.4786,71.0434,0,255.999,190.522)"
   id="g10741">
                <circle
   cx="0"
   cy="0"
   style="fill:url(#_Radial2)"
   id="ellipse10739"
   r="1" />
            </g>
            <g
   transform="matrix(-0.829036,0.559195,0.559195,0.829036,48.2208,113.618)"
   id="g10745">
                <path
   d="m 6.534,-21.372 c 6.448,0.027 11.676,5.28 11.676,11.733 0,6.454 -5.228,11.663 -11.676,11.637 -6.448,-0.027 -11.676,-5.28 -11.676,-11.733 0,-6.454 5.228,-11.663 11.676,-11.637"
   style="fill:#231f20;fill-rule:nonzero"
   id="path10743" />
            </g>
            <g
   transform="matrix(0.292746,-0.95619,-0.95619,-0.292746,168.256,170.928)"
   id="g10749">
                <path
   d="m 13.585,-46.974 c 2.847,-7.265 29.351,8.066 28.987,21.192 C 41.962,-3.802 19.568,14.307 13.585,2.503 10.247,-4.082 36.309,-9.538 30.832,-25.447 26.543,-37.905 8.936,-35.112 13.585,-46.974"
   style="fill:#2f2f2f;fill-rule:nonzero"
   id="path10747" />
            </g>
        </g>
        <g
   transform="matrix(0.633157,0,0,0.633157,-428.585,17.1377)"
   id="g10754">
            <path
   d="m 676.18,237.68 c 30.879,-17.642 51.802,21.584 112.613,23.086 31.371,0.774 94.876,-19.238 107.545,2.815 8.769,15.266 0.478,115.339 -121.059,106.982 C 655.894,362.354 651.336,251.874 676.18,237.68 Z"
   style="fill:#ed6c30"
   id="path10752" />
        </g>
        <g
   transform="matrix(0.257094,-0.966386,-0.966386,-0.257094,169.743,170.96)"
   id="g10758">
            <path
   d="m 13.585,-46.974 c 2.847,-7.265 29.351,8.066 28.987,21.192 -0.61,21.98 -23.004,40.089 -28.987,28.285 -0.631,-1.245 -0.211,-2.45 0.848,-3.693 4.543,-5.329 20.84,-11.356 16.399,-24.257 -4.289,-12.458 -21.896,-9.665 -17.247,-21.527 z"
   style="fill:none;fill-rule:nonzero;stroke:#1b2031;stroke-width:5px"
   id="path10756" />
        </g>
    </g>
    <defs
   id="defs10767">
        <radialGradient
   id="_Radial2"
   cx="0"
   cy="0"
   r="1"
   gradientUnits="userSpaceOnUse"
   gradientTransform="matrix(0,1,1,0,-8.49688e-6,8.49688e-6)"><stop
     offset="0"
     style="stop-color:rgb(247,148,29);stop-opacity:1"
     id="stop10762" /><stop
     offset="1"
     style="stop-color:rgb(255,186,0);stop-opacity:1"
     id="stop10764" /></radialGradient>
    </defs>
<path
   style="clip-rule:evenodd;fill:#076d14;fill-opacity:0.99689;fill-rule:evenodd;stroke-width:0.278153;stroke-miterlimit:10"
   d="m 192.71327,197.36431 c 8.8e-4,-0.0682 0.45464,-0.89999 1.01041,-1.84814 2.39984,-4.09466 4.42902,-9.28679 5.53423,-14.16052 1.27617,-5.62761 1.58078,-9.03085 1.76493,-19.70145 l 0.17414,-10.10516 1.51183,2.29282 c 5.16364,7.83112 9.12934,18.48103 9.70848,26.07239 l 0.18396,2.41084 1.9806,-2.36228 c 2.78293,-3.31911 4.35356,-5.74087 6.22232,-9.5942 3.89139,-8.02403 5.41856,-15.05066 7.09835,-32.66061 0.3856,-4.04177 0.7796,-7.84032 0.87572,-8.44117 l 0.17471,-1.09251 0.78899,1.84948 c 4.37983,10.26686 8.21272,26.68667 9.11312,39.03982 0.13722,1.88297 0.30621,3.48029 0.3755,3.54958 0.34948,0.34948 4.62363,-10.72644 6.30909,-16.34938 6.46407,-21.56478 7.22189,-42.39285 2.35093,-64.612446 -0.99315,-4.530332 -2.37014,-9.59627 -2.60839,-9.596277 -0.11475,2.3e-5 -0.93688,0.438457 -1.8268,0.974334 -5.23727,3.153718 -14.35398,5.145032 -23.5553,5.145027 -7.40545,4e-6 -13.48705,-0.950668 -20.31378,-3.17545 -9.41148,-3.06712 -15.00435,-7.387435 -20.74115,-16.021881 -2.6731,-4.023251 -5.09206,-8.742376 -9.90669,-19.326851 -5.51088,-12.115137 -8.9491,-18.509391 -12.85212,-23.901874 -0.65671,-0.907311 -1.15311,-1.690552 -1.10313,-1.740542 0.0501,-0.05 1.64413,0.64671 3.54254,1.548237 11.21033,5.323578 19.32781,7.220247 37.10811,8.670428 14.77319,1.204924 19.08838,2.20799 27.25594,6.335643 10.58095,5.347313 16.83189,11.782418 20.77724,21.389325 0.64559,1.571964 1.27353,2.858111 1.39543,2.858107 0.12199,-3.4e-5 0.22161,-0.881123 0.22164,-1.95803 1e-5,-6.708137 1.78854,-13.897378 5.08763,-20.45045 8.14223,-16.173111 27.41103,-31.51181 49.70847,-39.56987 2.5009,-0.9038 8.75657,-2.8312599982331 9.18897,-2.83125 0.1407,-4.9998233e-5 -0.4359,1.06109 -1.28126,2.35798 -3.22484,4.94737 -5.94027,11.6934 -7.44813,18.5035 -0.93659,4.229948 -1.39877,7.491266 -2.54664,17.969421 -1.55103,14.158075 -2.62609,19.04721 -5.39387,24.530196 -3.18214,6.303792 -12.14407,14.053225 -19.84144,17.157072 -3.5879,1.446755 -6.35007,1.909112 -10.48597,1.755268 -3.09749,-0.115216 -3.83038,-0.24461 -6.41068,-1.131793 -1.60235,-0.550956 -2.95031,-0.964809 -2.99541,-0.919691 -0.0452,0.04514 0.42204,2.06941 1.03816,4.498422 2.15046,8.478186 3.50492,16.630655 4.19288,25.236305 0.43419,5.4314 0.19624,19.3457 -0.41712,24.39116 -1.73913,14.30625 -5.42723,27.58725 -11.3419,40.8427 -0.91032,2.04015 -1.6059,3.75854 -1.54577,3.81867 0.0602,0.0601 1.27958,-0.64745 2.70986,-1.57242 8.46916,-5.47694 13.19014,-11.46788 18.22614,-23.12904 l 1.17011,-2.70955 0.34418,3.12676 c 0.60587,5.50451 0.70011,13.06734 0.20192,16.20704 -0.80919,5.09939 -3.05277,10.54457 -6.5651,15.93299 -0.92801,1.4238 -1.68736,2.71674 -1.68737,2.87321 1e-4,0.18522 0.65525,0.21595 1.87753,0.0879 9.02808,-0.94532 17.09838,-8.15642 22.48665,-20.09262 l 1.16566,-2.58219 0.15971,1.19143 c 0.35255,2.63003 0.52903,17.04484 0.22213,18.14312 -0.16824,0.60342 -0.24764,1.1559 -0.17547,1.22793 0.25682,0.25683 3.54479,-0.82571 5.50724,-1.81324 1.09778,-0.5524 2.72531,-1.49928 3.61674,-2.10416 0.89146,-0.60486 1.66477,-1.05582 1.7185,-1.00212 0.0537,0.0536 -0.12814,1.0976 -0.40387,2.31979 -0.27607,1.2221 -0.84056,3.78662 -1.25435,5.69892 -0.41375,1.91229 -0.95041,4.19663 -1.19254,5.07627 l -0.44036,1.59934 -49.88283,2e-5 c -27.43555,0 -49.8828,-0.0559 -49.8828,-0.1242 z"
   id="path2026"
   inkscape:label="plont" /></svg>
